<svg xmlns:dc="http://purl.org/dc/elements/1.1/" xmlns:cc="http://creativecommons.org/ns#" xmlns:rdf="http://www.w3.org/1999/02/22-rdf-syntax-ns#" xmlns:svg="http://www.w3.org/2000/svg" xmlns="http://www.w3.org/2000/svg" xmlns:sodipodi="http://sodipodi.sourceforge.net/DTD/sodipodi-0.dtd" xmlns:inkscape="http://www.inkscape.org/namespaces/inkscape" width="100" height="100" viewBox="0 0 80 80" version="1.1" id="svg2" inkscape:version="0.48.2 r9819" sodipodi:docname="blank.svg">
  <metadata id="metadata10">
    <rdf:RDF>
      <cc:Work rdf:about="">
        <dc:format>image/svg+xml</dc:format>
        <dc:type rdf:resource="http://purl.org/dc/dcmitype/StillImage"/>
        <dc:title/>
      </cc:Work>
    </rdf:RDF>
  </metadata>
  <defs id="defs8"/>
  <sodipodi:namedview pagecolor="#ffffff" bordercolor="#666666" borderopacity="1" objecttolerance="10" gridtolerance="10" guidetolerance="10" inkscape:pageopacity="0" inkscape:pageshadow="2" inkscape:window-width="1366" inkscape:window-height="706" id="namedview6" showgrid="false" inkscape:zoom="3.041745" inkscape:cx="50.980585" inkscape:cy="59.003669" inkscape:window-x="-8" inkscape:window-y="-8" inkscape:window-maximized="1" inkscape:current-layer="svg2"/>
  <g id="g3041" transform="matrix(-0.24587194,0.37331924,-0.37331924,-0.24587194,82.468408,25.122875)" style="fill:#000000;stroke:none"/>
  <path style="fill:#000000;fill-opacity:1;stroke:none" d="m 66.018636,21.639388 c -0.09187,0.0018 -0.184394,0.02063 -0.273122,0.04552 0,0 -6.872048,1.663458 -10.242086,2.867785 -0.831385,0.297107 -0.901214,1.285597 -1.694371,2.035773 0,0 -2.656255,2.216012 -3.608755,3.472194 -0.838485,1.105817 -1.379978,3.266838 -1.684254,4.71136 l -7.237741,-6.850818 c -0.326891,-0.309864 -1.030321,-0.09697 -1.593213,0.455203 -0.410911,-0.219456 -0.798316,-0.259646 -1.024209,-0.04552 l -7.12394,6.737017 c -0.05151,-0.122383 -0.110216,-0.23356 -0.136562,-0.273122 0,0 -0.07689,-2.529937 -1.722187,-4.440767 -1.104141,-1.282339 -2.254658,-1.642783 -3.173412,-2.511232 -0.918753,-0.868449 -0.91795,-1.357976 -1.272413,-1.552728 -3.438987,-1.516688 -7.449161,-3.037664 -11.038693,-4.218221 -0.08873,-0.02915 -0.18125,-0.04337 -0.273122,-0.04552 -0.643109,-0.01506 -1.335153,0.623823 -1.638734,1.547693 -3.263546,9.815896 -6.5866505,19.90595 -9.7186065,29.54273 -0.398853,1.502543 -0.306581,3.359112 0.751087,4.074074 l 8.2847135,1.024209 -10.76557442,8.899235 c -0.43162088,0.356583 -0.39711288,1.202685 0.09104,1.889096 l 2.93606402,4.119595 c 0.488154,0.686407 1.229867,0.971107 1.661494,0.614525 l 10.1738104,-8.421271 0.227602,9.536513 c 0.01359,0.5597 0.706371,1.05207 1.547693,1.09249 l 5.075523,0.25037 c 0.841322,0.0404 1.493005,-0.39622 1.479412,-0.95593 L 23.570876,57.008728 24.04884,53.185015 c 0.102699,-0.827193 -0.202456,-1.533572 -0.682806,-1.593213 l -5.872129,-0.728326 5.758329,-17.457068 4.392717,6.623216 1.570453,2.36706 c 0.573189,0.664378 1.114664,0.598821 1.820815,0.06828 l 9.240639,-8.762674 c 3.126604,3.354859 9.341981,10.019067 10.424168,8.30747 l 6.395614,-9.604801 6.327333,16.432859 -6.05421,0.751086 c -0.320233,0.03976 -0.564812,0.381077 -0.660046,0.842127 -0.273969,0.07067 -0.481406,0.213771 -0.591765,0.432444 L 46.080708,70.710364 c -0.25224,0.499821 0.178518,1.155234 0.955928,1.479412 l 4.688599,1.957375 c 0.777412,0.32418 1.591328,0.18119 1.843577,-0.31864 l 5.439685,-10.765572 2.230499,10.492449 c 0.117345,0.547423 0.875573,0.804583 1.684254,0.569003 L 67.793931,72.6905 c 0.808683,-0.235569 1.346391,-0.863692 1.229051,-1.411131 l -3.118147,-14.657565 11.51666,-1.433892 c 0.480345,-0.05964 0.785507,-0.766019 0.682806,-1.593213 L 77.489775,48.610217 C 74.300777,40.116914 70.93223,31.48825 67.65737,22.95948 67.35379,22.170773 66.661745,21.626529 66.018636,21.639388 z" id="rect3877-4-88" inkscape:connector-curvature="0" sodipodi:nodetypes="ccscsccccccsscccccccccccccccccccccccccccccccccccccccccccccc"/>
  <g id="g8703" transform="matrix(0.21234184,0,0,0.18817588,1.7961865,56.046772)" style="fill:#000000">
    <g id="g8677" style="fill:#000000">
      <ellipse id="ellipse8679" ry="5.8470001" rx="30.889" cy="5.8470001" cx="30.889" sodipodi:cx="30.889" sodipodi:cy="5.8470001" sodipodi:rx="30.889" sodipodi:ry="5.8470001" d="M 61.778,5.8470001 C 61.778,9.0762091 47.948524,11.694 30.889,11.694 13.829476,11.694 0,9.0762091 0,5.8470001 0,2.6177911 13.829476,0 30.889,0 47.948524,0 61.778,2.6177911 61.778,5.8470001 z" style="fill:#000000"/>
    </g>
    <g id="g8681" style="fill:#000000">
      <path id="path8683" d="m 53.015,12.736 c -5.925,1.121 -13.783,1.739 -22.126,1.739 -8.343,0 -16.2,-0.618 -22.125,-1.739 C 4.484,11.925 1.601,10.943 0,9.73 v 5.062 c 0,3.229 13.83,5.847 30.889,5.847 17.059,0 30.889,-2.618 30.889,-5.847 V 9.73 c -1.601,1.213 -4.485,2.195 -8.763,3.006 z" inkscape:connector-curvature="0" style="fill:#000000"/>
    </g>
    <g id="g8685" style="fill:#000000">
      <path id="path8687" d="m 49.909,22.38 c -1.895,0.276 -3.93,0.508 -6.073,0.693 l 11.506,65.253 c 0.261,1.48 1.548,2.521 3.001,2.521 0.176,0 0.354,-0.015 0.533,-0.047 1.66,-0.293 2.767,-1.876 2.474,-3.535 L 49.909,22.38 z" inkscape:connector-curvature="0" style="fill:#000000"/>
    </g>
    <path id="path8689" d="M 27.838,23.577 V 96.95 c 0,1.685 1.366,3.051 3.05,3.051 1.685,0 3.051,-1.366 3.051,-3.051 V 23.577 h -6.101 z" inkscape:connector-curvature="0" style="fill:#000000"/>
    <g id="g8691" style="fill:#000000">
      <path id="path8693" d="M 11.869,22.38 0.428,87.267 c -0.292,1.659 0.815,3.242 2.475,3.535 0.179,0.032 0.357,0.047 0.533,0.047 1.453,0 2.74,-1.041 3,-2.521 L 17.942,23.075 C 15.799,22.888 13.764,22.656 11.869,22.38 z" inkscape:connector-curvature="0" style="fill:#000000"/>
    </g>
    <path id="path8695" d="M 39.448,26.501" inkscape:connector-curvature="0" style="fill:#000000"/>
  </g>
  <path style="fill:#000000;fill-opacity:1;stroke:none" d="m 29.824145,16.134341 c 0,4.154822 -3.368148,7.52297 -7.52297,7.52297 -4.154821,0 -7.52297,-3.368148 -7.52297,-7.52297 0,-4.154823 3.368149,-7.5229708 7.52297,-7.5229708 4.154822,0 7.52297,3.3681478 7.52297,7.5229708 z" id="path3879-9-5" inkscape:connector-curvature="0"/>
  <g transform="matrix(-0.21234184,0,0,0.18817588,78.932444,54.054492)" id="g8743" style="fill:#000000">
    <g id="g8745" style="fill:#000000">
      <ellipse d="M 61.778,5.8470001 C 61.778,9.0762091 47.948524,11.694 30.889,11.694 13.829476,11.694 0,9.0762091 0,5.8470001 0,2.6177911 13.829476,0 30.889,0 47.948524,0 61.778,2.6177911 61.778,5.8470001 z" sodipodi:ry="5.8470001" sodipodi:rx="30.889" sodipodi:cy="5.8470001" sodipodi:cx="30.889" cx="30.889" cy="5.8470001" rx="30.889" ry="5.8470001" id="ellipse8747" style="fill:#000000"/>
    </g>
    <g id="g8749" style="fill:#000000">
      <path inkscape:connector-curvature="0" d="m 53.015,12.736 c -5.925,1.121 -13.783,1.739 -22.126,1.739 -8.343,0 -16.2,-0.618 -22.125,-1.739 C 4.484,11.925 1.601,10.943 0,9.73 v 5.062 c 0,3.229 13.83,5.847 30.889,5.847 17.059,0 30.889,-2.618 30.889,-5.847 V 9.73 c -1.601,1.213 -4.485,2.195 -8.763,3.006 z" id="path8751" style="fill:#000000"/>
    </g>
    <g id="g8753" style="fill:#000000">
      <path inkscape:connector-curvature="0" d="m 49.909,22.38 c -1.895,0.276 -3.93,0.508 -6.073,0.693 l 11.506,65.253 c 0.261,1.48 1.548,2.521 3.001,2.521 0.176,0 0.354,-0.015 0.533,-0.047 1.66,-0.293 2.767,-1.876 2.474,-3.535 L 49.909,22.38 z" id="path8755" style="fill:#000000"/>
    </g>
    <path inkscape:connector-curvature="0" d="M 27.838,23.577 V 96.95 c 0,1.685 1.366,3.051 3.05,3.051 1.685,0 3.051,-1.366 3.051,-3.051 V 23.577 h -6.101 z" id="path8757" style="fill:#000000"/>
    <g id="g8759" style="fill:#000000">
      <path inkscape:connector-curvature="0" d="M 11.869,22.38 0.428,87.267 c -0.292,1.659 0.815,3.242 2.475,3.535 0.179,0.032 0.357,0.047 0.533,0.047 1.453,0 2.74,-1.041 3,-2.521 L 17.942,23.075 C 15.799,22.888 13.764,22.656 11.869,22.38 z" id="path8761" style="fill:#000000"/>
    </g>
    <path style="fill:#000000" inkscape:connector-curvature="0" d="M 39.448,26.501" id="path8763"/>
  </g>
  <path inkscape:connector-curvature="0" style="fill:#000000;fill-opacity:1;stroke:none" d="m 57.620126,8.2108752 c -4.154821,0 -7.510864,3.3788008 -7.510864,7.5336238 0,4.154822 3.356043,7.510863 7.510864,7.510863 4.154821,0 7.533623,-3.356041 7.533623,-7.510863 0,-4.154823 -3.378802,-7.5336238 -7.533623,-7.5336238 z M 59.3499,14.78857 c 0,0 3.051938,1.656682 3.095386,2.617423 0.04345,0.960738 -0.197328,1.386013 -1.18353,1.22905 C 60.275558,18.478081 59.3499,14.78857 59.3499,14.78857 z" id="path8765"/>
  <rect style="fill:#000000;fill-opacity:1;stroke:none" id="rect8767" width="26.497324" height="4.3830156" x="26.484955" y="43.030117" ry="0.21647643"/>
  <rect style="fill:#000000;fill-opacity:1;stroke:none" id="rect8769" width="2.789192" height="28.677103" x="31.664883" y="46.018543" ry="0.14004432"/>
  <rect ry="0.13809849" y="46.416988" x="46.407757" height="28.278646" width="2.789192" id="rect8771" style="fill:#000000;fill-opacity:1;stroke:none"/>
  <path style="font-size:medium;font-style:normal;font-variant:normal;font-weight:normal;font-stretch:normal;text-indent:0;text-align:start;text-decoration:none;line-height:normal;letter-spacing:normal;word-spacing:normal;text-transform:none;direction:ltr;block-progression:tb;writing-mode:lr-tb;text-anchor:start;baseline-shift:baseline;color:#000000;fill:#000000;fill-opacity:1;stroke:none;stroke-width:0.51164353px;marker:none;visibility:visible;display:inline;overflow:visible;enable-background:accumulate;font-family:Sans;-inkscape-font-specification:Sans" d="m 48.043774,10.407233 -0.483654,0.227602 c 0,0 -0.867629,0.398548 -1.735464,0.938858 -0.433918,0.270156 -0.888029,0.571724 -1.223361,0.881958 -0.335331,0.310234 -0.583696,0.639058 -0.569005,1.024208 0.02034,0.533253 0.156769,0.91709 0.483654,1.10956 0.326886,0.19247 0.735387,0.148462 1.223361,0.02845 0.350439,-0.08619 0.583428,-0.376214 0.825057,-0.739706 0.241628,-0.363492 0.46266,-0.814072 0.654355,-1.251811 0.38339,-0.875477 0.654356,-1.707014 0.654356,-1.707014 l 0.170701,-0.512105 z m -0.853507,0.967309 c -0.106969,0.313329 -0.161867,0.512751 -0.398303,1.052658 -0.185373,0.423302 -0.381179,0.869557 -0.597455,1.194911 -0.216277,0.325353 -0.452498,0.5119 -0.569005,0.540554 -0.445918,0.109669 -0.741707,0.11103 -0.881958,0.02845 -0.140251,-0.08258 -0.238328,-0.275071 -0.256052,-0.739706 -0.0044,-0.113792 0.157453,-0.378889 0.455204,-0.654355 0.297751,-0.275467 0.689852,-0.563749 1.109559,-0.825057 0.557674,-0.347205 0.823573,-0.438993 1.13801,-0.597455 z" id="path8779" inkscape:connector-curvature="0"/>
  <path style="font-size:medium;font-style:normal;font-variant:normal;font-weight:normal;font-stretch:normal;text-indent:0;text-align:start;text-decoration:none;line-height:normal;letter-spacing:normal;word-spacing:normal;text-transform:none;direction:ltr;block-progression:tb;writing-mode:lr-tb;text-anchor:start;baseline-shift:baseline;color:#000000;fill:#000000;fill-opacity:1;stroke:none;stroke-width:0.51164353px;marker:none;visibility:visible;display:inline;overflow:visible;enable-background:accumulate;font-family:Sans;-inkscape-font-specification:Sans" d="m 65.910526,8.6717692 c -0.954732,0.04399 -1.820816,0.170701 -1.820816,0.170701 l -0.540554,0.08535 0.426753,0.341403 c 0,0 0.752883,0.599221 1.621664,1.1380088 0.43439,0.269395 0.910499,0.519553 1.337161,0.682806 0.426663,0.163254 0.827648,0.2691 1.16646,0.08535 0.469095,-0.254407 0.740365,-0.560537 0.768157,-0.938858 0.02779,-0.3783208 -0.188389,-0.7252038 -0.512105,-1.1095588 -0.232477,-0.276026 -0.591296,-0.371099 -1.024208,-0.426754 -0.432913,-0.05565 -0.945147,-0.05045 -1.422512,-0.02845 z m 0.02845,0.455204 c 0.461621,-0.02128 0.92122,-0.02137 1.308711,0.02845 0.387489,0.04982 0.690866,0.164285 0.768156,0.256052 0.295816,0.351231 0.410228,0.6342878 0.398304,0.7966068 -0.01193,0.162318 -0.131822,0.318885 -0.540555,0.540554 -0.100101,0.05429 -0.41776,0.0596 -0.796607,-0.08535 -0.378847,-0.144958 -0.803195,-0.393784 -1.22336,-0.654356 -0.584098,-0.3622378 -0.838028,-0.5627068 -1.109559,-0.7681558 0.320803,-0.04267 0.579414,-0.08544 1.19491,-0.113801 z" id="path8781" inkscape:connector-curvature="0"/>
  <path style="font-size:medium;font-style:normal;font-variant:normal;font-weight:normal;font-stretch:normal;text-indent:0;text-align:start;text-decoration:none;line-height:normal;letter-spacing:normal;word-spacing:normal;text-transform:none;direction:ltr;block-progression:tb;writing-mode:lr-tb;text-anchor:start;baseline-shift:baseline;color:#000000;fill:#000000;fill-opacity:1;stroke:none;stroke-width:0.51164353px;marker:none;visibility:visible;display:inline;overflow:visible;enable-background:accumulate;font-family:Sans;-inkscape-font-specification:Sans" d="m 65.853625,13.337608 0.170701,0.512105 c 0,0 0.294018,0.900796 0.739707,1.820815 0.222844,0.460009 0.49505,0.942507 0.768156,1.308711 0.273106,0.366204 0.554308,0.656761 0.938858,0.682806 0.532422,0.03606 0.940561,-0.06511 1.16646,-0.369853 0.2259,-0.304745 0.238536,-0.725445 0.170702,-1.223361 -0.04872,-0.357579 -0.346849,-0.631761 -0.682806,-0.910407 -0.335957,-0.278647 -0.751401,-0.531328 -1.16646,-0.768157 -0.830118,-0.473658 -1.621664,-0.825057 -1.621664,-0.825057 l -0.483654,-0.227602 z m 0.825057,0.938858 c 0.296258,0.136988 0.525144,0.211109 1.052659,0.512104 0.40137,0.229018 0.808853,0.490296 1.109559,0.739707 0.300707,0.24941 0.467458,0.507024 0.483654,0.625905 0.06199,0.455003 0.04002,0.722757 -0.0569,0.853507 -0.09692,0.13075 -0.304246,0.230571 -0.768157,0.199152 -0.113614,-0.0077 -0.354956,-0.18694 -0.597455,-0.512104 -0.242499,-0.325164 -0.495708,-0.778416 -0.711256,-1.223361 -0.292991,-0.60481 -0.390015,-0.870329 -0.512104,-1.19491 z" id="path8783" inkscape:connector-curvature="0"/>
  <path style="font-size:medium;font-style:normal;font-variant:normal;font-weight:normal;font-stretch:normal;text-indent:0;text-align:start;text-decoration:none;line-height:normal;letter-spacing:normal;word-spacing:normal;text-transform:none;direction:ltr;block-progression:tb;writing-mode:lr-tb;text-anchor:start;baseline-shift:baseline;color:#000000;fill:#000000;fill-opacity:1;stroke:none;stroke-width:0.51164353px;marker:none;visibility:visible;display:inline;overflow:visible;enable-background:accumulate;font-family:Sans;-inkscape-font-specification:Sans" d="m 13.533632,9.2692242 c -0.477366,-0.022 -0.989599,-0.0272 -1.422512,0.02845 -0.432912,0.05565 -0.820182,0.150728 -1.052659,0.426754 -0.323715,0.3843558 -0.539896,0.7312378 -0.512104,1.1095588 0.02779,0.378321 0.327512,0.684451 0.796607,0.938858 0.338812,0.183749 0.739797,0.0779 1.16646,-0.08535 0.426662,-0.163253 0.902771,-0.413411 1.337161,-0.682806 0.868781,-0.538788 1.621664,-1.1380088 1.621664,-1.1380088 l 0.398303,-0.341403 -0.512104,-0.08535 c 0,0 -0.866084,-0.126707 -1.820816,-0.170701 z m -0.02845,0.455204 c 0.610578,0.02814 0.844067,0.07107 1.166461,0.113801 -0.272867,0.2063278 -0.500127,0.4078488 -1.081112,0.7681558 -0.420165,0.260572 -0.872964,0.509398 -1.251811,0.654356 -0.378847,0.144957 -0.668055,0.139639 -0.768156,0.08535 -0.408731,-0.221669 -0.528628,-0.378236 -0.540553,-0.540554 -0.01193,-0.162319 0.102487,-0.445376 0.398303,-0.796607 0.07729,-0.09177 0.352216,-0.2062358 0.739707,-0.2560518 0.38749,-0.04982 0.87554,-0.04972 1.337161,-0.02845 z" id="path8787" inkscape:connector-curvature="0"/>
  <path style="font-size:medium;font-style:normal;font-variant:normal;font-weight:normal;font-stretch:normal;text-indent:0;text-align:start;text-decoration:none;line-height:normal;letter-spacing:normal;word-spacing:normal;text-transform:none;direction:ltr;block-progression:tb;writing-mode:lr-tb;text-anchor:start;baseline-shift:baseline;color:#000000;fill:#000000;fill-opacity:1;stroke:none;stroke-width:0.51164353px;marker:none;visibility:visible;display:inline;overflow:visible;enable-background:accumulate;font-family:Sans;-inkscape-font-specification:Sans" d="m 13.590533,13.935063 -0.483654,0.227602 c 0,0 -0.819996,0.351399 -1.650114,0.825057 -0.41506,0.236829 -0.830503,0.48951 -1.16646,0.768157 -0.3359575,0.278646 -0.6056415,0.552828 -0.6543575,0.910407 -0.06783,0.497916 -0.0552,0.918616 0.1707025,1.223361 0.2259,0.304744 0.634039,0.405911 1.166461,0.369853 0.384549,-0.02605 0.665752,-0.316602 0.938858,-0.682806 0.273105,-0.366204 0.516862,-0.848702 0.739706,-1.308711 0.445689,-0.920019 0.768156,-1.820815 0.768156,-1.820815 l 0.170702,-0.512105 z m -0.853507,0.938858 c -0.12209,0.324581 -0.219114,0.5901 -0.512105,1.19491 -0.215547,0.444945 -0.440307,0.898197 -0.682806,1.223361 -0.242499,0.325164 -0.512291,0.504409 -0.625905,0.512104 -0.46391,0.03142 -0.642784,-0.0684 -0.739706,-0.199152 -0.09692,-0.13075 -0.147339,-0.398504 -0.08535,-0.853507 0.0162,-0.118881 0.211398,-0.376494 0.512104,-0.625905 0.300707,-0.249411 0.67974,-0.510689 1.08111,-0.739706 0.527514,-0.300996 0.756401,-0.375117 1.052659,-0.512105 z" id="path8789" inkscape:connector-curvature="0"/>
  <path style="font-size:medium;font-style:normal;font-variant:normal;font-weight:normal;font-stretch:normal;text-indent:0;text-align:start;text-decoration:none;line-height:normal;letter-spacing:normal;word-spacing:normal;text-transform:none;direction:ltr;block-progression:tb;writing-mode:lr-tb;text-anchor:start;baseline-shift:baseline;color:#000000;fill:#000000;fill-opacity:1;stroke:none;stroke-width:0.51164353px;marker:none;visibility:visible;display:inline;overflow:visible;enable-background:accumulate;font-family:Sans;-inkscape-font-specification:Sans" d="m 29.949421,19.767363 -0.312952,0.426753 c 0,0 -0.594757,0.766909 -1.10956,1.650114 -0.257401,0.441603 -0.474393,0.90619 -0.625905,1.337161 -0.151512,0.430972 -0.249856,0.832806 -0.0569,1.16646 0.267154,0.461954 0.559918,0.750732 0.938858,0.768157 0.37894,0.01743 0.73421,-0.206438 1.10956,-0.540555 0.269558,-0.239947 0.354521,-0.618384 0.398303,-1.052659 0.04378,-0.434274 0.03506,-0.945927 0,-1.422512 -0.07012,-0.953168 -0.256052,-1.820815 -0.256052,-1.820815 l -0.08535,-0.512104 z m -0.284502,1.22336 c 0.05178,0.325422 0.09853,0.543648 0.142251,1.13801 0.0339,0.460865 0.03918,0.948452 0,1.337161 -0.03918,0.388708 -0.137984,0.688383 -0.227602,0.768156 -0.343,0.305322 -0.605572,0.43423 -0.768156,0.426754 -0.162585,-0.0075 -0.336229,-0.138044 -0.569005,-0.540555 -0.05701,-0.09858 -0.04918,-0.385483 0.08535,-0.768156 0.134532,-0.382674 0.376934,-0.853119 0.625906,-1.280261 0.337451,-0.57894 0.509644,-0.798056 0.711256,-1.081109 z" id="path8791" inkscape:connector-curvature="0"/>
</svg>