<svg xmlns="http://www.w3.org/2000/svg" xmlns:xlink="http://www.w3.org/1999/xlink" version="1.1" id="Layer_1" x="0px" y="0px" width="100px" height="100px" viewBox="0 0 100 100" enable-background="new 0 0 100 100" xml:space="preserve">
<g>
	<path d="M84.882,20.572l-3.506-6.275c-0.107-0.191-0.28-0.334-0.487-0.404l-0.801-0.268c-0.213-0.072-0.445-0.059-0.65,0.038   l-4.607,2.159l-4.308-5.959c-0.127-0.177-0.316-0.3-0.53-0.345l-0.889-0.185c-0.22-0.047-0.449-0.006-0.642,0.112l-2.573,1.595   L60.6,4.984c-0.143-0.163-0.344-0.27-0.561-0.294L59.09,4.582c-0.223-0.026-0.447,0.036-0.627,0.171l-2.668,2.014   c-0.033-0.046-0.069-0.089-0.111-0.128l-6.147-5.726c-0.16-0.148-0.37-0.232-0.588-0.235l-0.987-0.011   c-0.221-0.001-0.442,0.082-0.607,0.235l-6.149,5.725c-0.115,0.107-0.198,0.244-0.243,0.395l-2.538-1.917   c-0.18-0.136-0.405-0.197-0.628-0.172l-0.949,0.108c-0.217,0.025-0.417,0.131-0.56,0.294l-5.067,5.799l-2.446-1.515   c-0.191-0.118-0.421-0.159-0.642-0.112l-0.887,0.185c-0.213,0.044-0.403,0.168-0.531,0.345l-4.402,6.09L17.8,14.013   c-0.204-0.096-0.437-0.11-0.651-0.038l-0.801,0.269c-0.207,0.069-0.38,0.212-0.487,0.403l-3.507,6.275   c-0.08,0.142-0.118,0.306-0.11,0.469c0.007,0.162,0.216,4.073,2.606,14.188c1.301,5.5,4.6,8.893,7.138,10.769   c2.308,1.707,4.412,2.494,5.08,2.719L36,73.813v4.903c-1,0.027-2,0.562-2,1.313v6.447l0,0c0,7.366,6.551,13.06,14.021,13.06   S62,93.844,62,86.478l0,0V80.03c0-0.693,0-1.199-1-1.297v-5.064l9.173-24.927c0.564-0.184,2.699-0.964,5.108-2.745   c2.539-1.876,5.819-5.268,7.12-10.769C84.792,25.114,84.994,21.202,85,21.041C85.01,20.877,84.962,20.714,84.882,20.572z    M49.268,74l0.006-8.256c0.911,0.008,1.861,0.208,2.85,0.261L51.213,74H49.268z M45.458,74l-0.908-8.122   c0.93-0.064,1.92,0.06,2.97,0.043L47.515,74H45.458z M34.189,15.036c0.424,0.942,2.15,5.007,4.725,14.146   c1.184,4.205,0.874,8.379-0.918,12.41c-0.355-0.347-0.72-0.727-1.083-1.138c-3.114-3.532-4.749-7.681-4.858-12.331   c-0.178-7.574,0.053-12.063,0.235-14.264L34.189,15.036z M48.496,35.788c0.493,1.605,1.13,2.996,1.765,4.141   c-0.716,0.711-1.321,1.214-1.679,1.494c-0.055-0.01-0.111-0.016-0.167-0.016c0,0,0,0,0,0c-0.036,0-0.07,0.006-0.104,0.009   c-0.336-0.262-0.891-0.722-1.555-1.373C47.392,38.859,48.021,37.431,48.496,35.788z M64.626,13.883   c0.177,2.31,0.375,6.704,0.204,13.889c-0.108,4.65-1.742,8.799-4.856,12.331c-0.297,0.335-0.592,0.648-0.886,0.94   c-1.275-3.042-2.127-7.202-0.765-12.037c2.576-9.141,4.302-13.206,4.725-14.146L64.626,13.883z M65.919,42.984   c0.069,0.216,0.142,0.427,0.216,0.633c-1.449,1.248-2.784,2.04-3.527,2.434l-0.603-0.133c-0.495-0.598-1.319-1.694-2.121-3.197   c0.442-0.421,0.898-0.887,1.356-1.404c1.323-1.491,2.8-3.563,3.865-6.22C64.752,38.245,65.276,40.985,65.919,42.984z    M62.229,64.948c-1.14-0.211-2.249-0.392-3.323-0.545l2.326-10.476c1.543,0.215,3.143,0.475,4.793,0.782L62.229,64.948z    M57.162,64.171c-1.063-0.129-2.089-0.231-3.081-0.313l1.231-10.572c1.342,0.104,2.733,0.24,4.173,0.415L57.162,64.171z    M37.474,53.857c1.164-0.187,2.462-0.358,3.892-0.497l1.23,10.558c-1.064,0.106-2.036,0.237-2.915,0.38L37.474,53.857z    M37.956,64.614c-1.383,0.283-2.438,0.575-3.153,0.8l-3.642-10.108c0.907-0.291,2.446-0.728,4.585-1.142L37.956,64.614z    M36.169,47.691c0.363-0.396,1.344-1.534,2.361-3.289c0.866,0.689,1.569,1.143,1.954,1.375l0.678,5.831   c-0.674,0.065-1.313,0.137-1.909,0.211c-0.758,0.097-1.473,0.2-2.145,0.311L36.169,47.691z M45.833,41.599   c0.808,0.76,1.437,1.239,1.702,1.431l-0.005,8.241c-1.673,0.021-3.216,0.088-4.62,0.188l-0.655-5.622   c0.02-0.014,0.039-0.027,0.059-0.044C42.395,45.726,44.114,44.26,45.833,41.599z M51.198,41.47c1.46,2.204,2.885,3.539,3.273,3.885   l-0.707,6.07c-1.576-0.093-3.07-0.143-4.481-0.155l0.007-8.187C49.522,42.917,50.25,42.378,51.198,41.47z M43.115,53.213   c1.368-0.099,2.84-0.165,4.414-0.185l-0.007,10.609c-1.125,0.017-2.185,0.063-3.177,0.131L43.115,53.213z M49.283,53.023   c1.358,0.012,2.784,0.057,4.278,0.144L52.329,63.74c-1.063-0.061-2.081-0.095-3.054-0.105L49.283,53.023z M55.517,51.545   l0.699-6.007c0.317-0.184,1.194-0.716,2.313-1.625c0.949,1.701,1.896,2.874,2.371,3.417l-1.033,4.654   C58.36,51.797,56.909,51.653,55.517,51.545z M57.716,42.305c-0.998,0.84-1.821,1.376-2.213,1.616   c-0.487-0.456-1.783-1.751-3.055-3.746c0.52-0.582,1.064-1.246,1.604-1.996c0.619-0.865,1.267-1.894,1.859-3.079   C56.083,38.017,56.885,40.48,57.716,42.305z M52.666,37.102c-0.383,0.535-0.768,1.021-1.145,1.465   c-2.029-3.897-2.657-8.056-1.862-12.374c1.821-9.873,3.241-14.3,3.585-15.304l1.46-1.102c0.428,2.411,1.083,6.88,1.655,14.091   C56.741,28.684,55.5,33.133,52.666,37.102z M45.483,38.685c-2.509-2.915-5.506-7.919-4.956-14.817   c0.549-6.903,1.172-11.292,1.6-13.77l1.514,1.143c0.346,1.006,1.765,5.432,3.585,15.304C48.006,30.777,47.418,34.856,45.483,38.685   z M42.833,38.167c0.585,0.816,1.178,1.531,1.737,2.146c-1.313,2.114-2.683,3.487-3.187,3.958c-0.367-0.223-1.11-0.707-2.02-1.454   c0.051-0.106,0.102-0.214,0.151-0.325c0.792-1.736,1.558-4.051,1.781-6.785C41.796,36.635,42.323,37.457,42.833,38.167z    M35.645,41.667c0.518,0.584,1.035,1.105,1.53,1.567c-0.634,1.132-1.266,2.011-1.723,2.588l-1.125,0.237   c-0.762-0.427-1.919-1.158-3.173-2.236c0.056-0.16,0.112-0.322,0.166-0.489c0.573-1.782,1.053-4.154,0.899-6.879   C33.229,38.633,34.494,40.37,35.645,41.667z M29.73,42.477c-2.223-2.326-4.395-5.745-4.947-10.49   c-0.733-6.3-0.955-10.36-1.011-12.67c0.868,1.566,2.71,5.152,5.438,11.774C31.025,35.494,30.625,39.508,29.73,42.477z    M30.463,45.545c1.94,1.575,3.592,2.372,4,2.558l0.917,4.334c-2.244,0.438-3.856,0.9-4.815,1.213l-1.829-5.077   C28.978,48.246,29.721,47.178,30.463,45.545z M35.401,67.414c0.663-0.203,1.642-0.297,2.922-0.555L39.797,74h-2.146L35.401,67.414z    M40.05,66.38c0.83-0.132,1.749-0.085,2.752-0.186L43.691,74H41.59L40.05,66.38z M53.877,65.949   c0.936,0.074,1.904,0.338,2.901,0.454L55.13,74h-2.152L53.877,65.949z M58.523,66.46c1.001,0.142,2.03,0.474,3.088,0.663L59.125,74   h-2.198L58.523,66.46z M66.644,53.04c-1.736-0.327-3.413-0.6-5.031-0.828l0.933-4.201c0.045-0.011,0.09-0.023,0.133-0.042   c0.091-0.038,1.941-0.839,4.155-2.647c0.679,1.467,1.348,2.458,1.62,2.836L66.644,53.04z M68.025,30.741   c2.724-6.61,4.575-10.21,5.443-11.78c-0.049,2.277-0.263,6.385-1.016,12.851c-0.468,4.026-2.119,7.537-4.902,10.456   C66.626,39.286,66.184,35.213,68.025,30.741z M69.089,11.12l0.212,0.044l3.912,5.415l-0.285,0.134   c-0.148,0.07-0.274,0.18-0.362,0.317c-0.09,0.136-2.198,3.428-6.148,13.015c0.092-0.717,0.15-1.46,0.169-2.231   c0.194-8.308-0.091-12.92-0.283-14.968L69.089,11.12z M59.238,6.364l0.264,0.03l4.875,5.58l-2.476,1.533   c-0.14,0.086-0.252,0.211-0.325,0.357c-0.063,0.128-1.334,2.734-3.482,9.705c-0.653-8.162-1.396-12.791-1.82-14.965L59.238,6.364z    M42.592,7.732l5.7-5.307l0.297,0.003l5.708,5.315c0.01,0.038,0.02,0.083,0.03,0.131l-2.348,1.774   c-0.132,0.099-0.231,0.232-0.29,0.385c-0.061,0.157-1.398,3.7-3.281,13.346c-1.846-9.382-3.152-12.84-3.211-12.996   c-0.059-0.153-0.159-0.286-0.291-0.385l-2.414-1.823C42.533,7.989,42.566,7.839,42.592,7.732z M37.384,6.745l0.263-0.03   l2.908,2.196c-0.418,2.22-1.093,6.572-1.703,13.903c-1.972-6.272-3.131-8.651-3.192-8.773c-0.073-0.147-0.185-0.271-0.324-0.357   l-2.605-1.613L37.384,6.745z M27.937,11.339l0.212-0.044l2.473,1.531c-0.191,1.83-0.529,6.485-0.32,15.337   c0.009,0.377,0.028,0.749,0.055,1.114c-3.652-8.724-5.599-11.767-5.684-11.897c-0.089-0.137-0.215-0.247-0.364-0.317l-0.38-0.178   L27.937,11.339z M16.557,35.175c-2.021-8.552-2.459-12.641-2.543-13.627l3.212-5.75l0.146-0.049l4.626,2.168   c-0.008,1.916,0.117,6.319,1.043,14.271c0.679,5.833,3.604,9.786,6.03,12.125c-0.456,1.09-0.932,1.947-1.28,2.512l-0.872,0.314   C24.64,46.201,18.398,42.966,16.557,35.175z M80.68,34.824c-1.846,7.807-8.15,11.052-10.398,11.979l-0.823-0.305   c-0.335-0.544-0.795-1.365-1.24-2.41c2.415-2.346,5.304-6.284,5.978-12.074c0.955-8.205,1.058-12.631,1.043-14.447l4.625-2.168   l0.146,0.049l3.214,5.75C83.138,22.184,82.699,26.274,80.68,34.824z"/>
</g>
</svg>