<svg xmlns="http://www.w3.org/2000/svg" xmlns:xlink="http://www.w3.org/1999/xlink" version="1.1" id="Layer_2_copy" x="0px" y="0px" width="100px" height="100px" viewBox="0 0 100 100" enable-background="new 0 0 100 100" xml:space="preserve">
<path d="M21.512,12.164C10.115,20.747,2.744,34.389,2.744,49.754c0,25.974,21.055,47.029,47.029,47.029  c7.033,0,13.7-1.555,19.691-4.321C53.543,80.524,24.651,28.714,21.512,12.164z M39.343,65.985c1.137-0.705,2.636-0.358,3.344,0.78  c0.86,1.383,1.712,2.72,2.553,4.012c0.732,1.122,0.416,2.627-0.707,3.359c-0.41,0.266-0.869,0.394-1.324,0.394  c-0.793,0-1.57-0.388-2.036-1.103c-0.86-1.318-1.73-2.684-2.609-4.098C37.855,68.191,38.205,66.694,39.343,65.985z M36.04,55.471  c0.763,1.36,1.549,2.742,2.363,4.145c0.672,1.16,0.277,2.646-0.883,3.318c-0.383,0.223-0.802,0.327-1.216,0.327  c-0.837,0-1.652-0.433-2.103-1.21c-0.825-1.424-1.624-2.826-2.398-4.207c-0.655-1.17-0.238-2.649,0.932-3.305  C33.901,53.885,35.384,54.3,36.04,55.471z M29.888,43.896c0.694,1.382,1.419,2.796,2.175,4.239c0.622,1.188,0.164,2.655-1.023,3.278  c-0.36,0.188-0.745,0.277-1.125,0.277c-0.874,0-1.719-0.473-2.152-1.301c-0.77-1.469-1.507-2.908-2.214-4.314  c-0.602-1.198-0.119-2.657,1.08-3.259C27.827,42.215,29.286,42.698,29.888,43.896z M24.331,32.054  c0.605,1.394,1.251,2.841,1.941,4.337c0.561,1.218,0.028,2.66-1.189,3.221c-0.33,0.152-0.675,0.223-1.015,0.223  c-0.918,0-1.797-0.523-2.207-1.412c-0.705-1.531-1.367-3.012-1.985-4.438c-0.533-1.23,0.031-2.66,1.261-3.193  C22.367,30.258,23.798,30.824,24.331,32.054z M16.581,18.389c1.274-0.417,2.646,0.275,3.064,1.549  c0.457,1.392,0.984,2.884,1.567,4.437c0.471,1.255-0.164,2.655-1.419,3.126c-0.281,0.105-0.569,0.155-0.853,0.155  c-0.982,0-1.907-0.601-2.273-1.575c-0.606-1.616-1.156-3.173-1.634-4.628C14.613,20.179,15.307,18.808,16.581,18.389z M11.474,31.9  c-0.562-1.506-1.072-2.951-1.515-4.293c-0.404-1.221,0.259-2.538,1.479-2.941c1.224-0.404,2.538,0.26,2.941,1.48  c0.425,1.287,0.915,2.675,1.456,4.126c0.449,1.205-0.163,2.546-1.368,2.995c-0.268,0.1-0.542,0.147-0.812,0.147  C12.711,33.416,11.823,32.837,11.474,31.9z M18.364,44.749c-0.886,0-1.732-0.508-2.122-1.367c-0.641-1.414-1.248-2.794-1.819-4.133  c-0.505-1.182,0.044-2.55,1.227-3.055c1.183-0.505,2.55,0.045,3.056,1.227c0.558,1.308,1.151,2.656,1.778,4.038  c0.531,1.171,0.012,2.551-1.159,3.082C19.012,44.682,18.685,44.749,18.364,44.749z M23.736,55.784c-0.841,0-1.653-0.456-2.067-1.254  c-0.705-1.355-1.386-2.695-2.042-4.019c-0.571-1.151-0.101-2.548,1.051-3.12c1.151-0.568,2.549-0.101,3.12,1.051  c0.643,1.296,1.311,2.611,2.002,3.939c0.593,1.141,0.149,2.547-0.991,3.14C24.465,55.7,24.098,55.784,23.736,55.784z M30.866,66.192  c-0.372,0.22-0.779,0.323-1.182,0.323c-0.796,0-1.572-0.409-2.007-1.145c-0.771-1.305-1.521-2.607-2.251-3.904  c-0.632-1.12-0.235-2.54,0.885-3.171c1.12-0.63,2.54-0.235,3.171,0.886c0.716,1.27,1.451,2.545,2.205,3.822  C32.341,64.11,31.973,65.538,30.866,66.192z M37.396,76.58c-0.391,0.253-0.83,0.374-1.263,0.374c-0.763,0-1.511-0.375-1.957-1.064  c-0.781-1.206-1.584-2.471-2.412-3.797c-0.681-1.091-0.349-2.526,0.741-3.208c1.09-0.678,2.526-0.349,3.208,0.742  c0.814,1.303,1.604,2.547,2.373,3.734C38.784,74.44,38.475,75.882,37.396,76.58z M44.482,86.595c-0.417,0.311-0.904,0.46-1.387,0.46  c-0.711,0-1.413-0.324-1.87-0.938c-0.845-1.137-1.728-2.359-2.648-3.672c-0.737-1.054-0.482-2.505,0.571-3.242  c1.054-0.739,2.505-0.482,3.243,0.57c0.893,1.275,1.749,2.461,2.57,3.564C45.728,84.368,45.514,85.826,44.482,86.595z   M46.534,77.077c1.092-0.781,2.607-0.527,3.387,0.563c0.945,1.321,1.89,2.604,2.808,3.81c0.812,1.066,0.607,2.59-0.46,3.402  c-0.439,0.334-0.957,0.496-1.469,0.496c-0.732,0-1.456-0.329-1.933-0.957c-0.948-1.244-1.922-2.566-2.895-3.928  C45.191,79.373,45.443,77.856,46.534,77.077z M52.661,95.724c-0.455,0.46-1.054,0.69-1.654,0.69c-0.591,0-1.184-0.224-1.637-0.673  c-1.013-1.003-2.077-2.144-3.161-3.389c-0.844-0.971-0.742-2.44,0.228-3.285c0.97-0.843,2.441-0.74,3.285,0.229  c1.008,1.16,1.991,2.214,2.923,3.136C53.558,93.336,53.566,94.81,52.661,95.724z M61.066,94.705  c-0.473,0.466-1.089,0.698-1.703,0.698c-0.628,0-1.255-0.242-1.73-0.724c-1.081-1.099-2.212-2.321-3.36-3.633  c-0.883-1.01-0.78-2.543,0.229-3.426c1.011-0.885,2.543-0.78,3.427,0.229c1.085,1.241,2.15,2.392,3.165,3.423  C62.034,92.228,62.022,93.765,61.066,94.705z"/>
<path d="M70.68,89.368c0.557,0.45,1.27,0.986,2.02,1.446c14.378-8.045,24.104-23.413,24.104-41.061  c0-25.973-21.056-47.029-47.029-47.029c-9.398,0-18.145,2.768-25.49,7.516C24.441,20.021,54.222,76.02,70.68,89.368z M45.801,41.53  c-0.372,0.21-0.777,0.309-1.176,0.309c-0.839,0-1.655-0.44-2.096-1.225c-0.826-1.468-1.612-2.896-2.358-4.285  c-0.628-1.169-0.19-2.626,0.979-3.254c1.168-0.63,2.626-0.19,3.254,0.979c0.732,1.362,1.502,2.764,2.313,4.204  C47.368,39.415,46.958,40.879,45.801,41.53z M52.678,52.94c-0.391,0.237-0.822,0.352-1.249,0.352c-0.81,0-1.601-0.41-2.053-1.152  l-0.099-0.158c-0.846-1.357-1.657-2.683-2.44-3.981c-0.685-1.137-0.319-2.613,0.818-3.298c1.137-0.684,2.614-0.318,3.298,0.817  c0.771,1.279,1.57,2.584,2.399,3.916l0.125,0.203C54.169,50.77,53.811,52.248,52.678,52.94z M59.752,64.226  c-0.396,0.249-0.838,0.367-1.273,0.367c-0.8,0-1.582-0.4-2.038-1.128l-2.568-4.11c-0.703-1.126-0.359-2.607,0.766-3.311  c1.126-0.703,2.607-0.358,3.311,0.766l2.564,4.105C61.218,62.039,60.877,63.521,59.752,64.226z M66.897,75.47  c-0.401,0.258-0.852,0.382-1.297,0.382c-0.79,0-1.563-0.39-2.023-1.104c-0.828-1.288-1.699-2.653-2.614-4.097  c-0.71-1.121-0.377-2.605,0.744-3.316c1.122-0.708,2.604-0.377,3.315,0.744c0.909,1.436,1.773,2.79,2.596,4.07  C68.337,73.265,68.014,74.752,66.897,75.47z M74.435,86.449c-0.426,0.31-0.92,0.458-1.409,0.458c-0.743,0-1.477-0.344-1.946-0.992  c-0.852-1.175-1.773-2.494-2.816-4.036c-0.744-1.098-0.456-2.592,0.643-3.336s2.593-0.456,3.336,0.644  c1.014,1.497,1.905,2.774,2.728,3.907C75.747,84.168,75.509,85.67,74.435,86.449z M76.393,75.127  c1.103-0.743,2.593-0.455,3.337,0.644c0.965,1.429,1.859,2.712,2.659,3.814c0.778,1.075,0.538,2.577-0.536,3.355  c-0.426,0.309-0.919,0.457-1.407,0.457c-0.744,0-1.479-0.345-1.948-0.993c-0.83-1.146-1.754-2.471-2.748-3.941  C75.006,77.363,75.294,75.87,76.393,75.127z M69.369,64.187c1.119-0.712,2.604-0.379,3.314,0.743  c0.888,1.398,1.732,2.723,2.535,3.971c0.718,1.116,0.396,2.603-0.721,3.32c-0.402,0.259-0.853,0.383-1.298,0.383  c-0.789,0-1.563-0.39-2.022-1.104c-0.81-1.257-1.658-2.589-2.552-3.999C67.916,66.381,68.248,64.896,69.369,64.187z M62.469,53.165  c1.123-0.703,2.607-0.359,3.311,0.767l2.504,4.009c0.703,1.124,0.361,2.606-0.764,3.311c-0.396,0.247-0.836,0.365-1.271,0.365  c-0.801,0-1.583-0.399-2.039-1.129l-2.507-4.012C61,55.351,61.343,53.868,62.469,53.165z M55.652,42.094  c1.133-0.687,2.612-0.32,3.297,0.816c0.755,1.25,1.534,2.524,2.344,3.824c0.7,1.124,0.415,2.691-0.707,3.395  c-0.421,0.264-0.886,0.394-1.338,0.394c-0.753,0-1.474-0.359-1.914-1.058c-0.003-0.004-0.062-0.097-0.064-0.102  c-0.877-1.408-1.669-2.703-2.434-3.971C54.15,44.256,54.516,42.78,55.652,42.094z M52.561,31.724  c0.714,1.329,1.466,2.696,2.258,4.102c0.65,1.156,0.239,2.621-0.917,3.272c-0.371,0.209-0.776,0.309-1.176,0.309  c-0.839,0-1.654-0.44-2.096-1.225c-0.807-1.434-1.574-2.828-2.302-4.184c-0.628-1.169-0.189-2.626,0.979-3.254  C50.477,30.115,51.934,30.554,52.561,31.724z M46.853,20.229c0.608,1.347,1.267,2.753,1.979,4.219  c0.581,1.194,0.083,2.631-1.11,3.211c-0.338,0.165-0.696,0.243-1.049,0.243c-0.891,0-1.747-0.498-2.162-1.353  c-0.733-1.509-1.412-2.957-2.037-4.343c-0.546-1.209-0.008-2.633,1.202-3.178C44.882,18.48,46.307,19.018,46.853,20.229z   M39.246,6.809c1.27-0.39,2.614,0.317,3.007,1.583c0.422,1.362,0.924,2.823,1.492,4.342c0.464,1.243-0.167,2.626-1.41,3.092  c-0.277,0.103-0.561,0.152-0.84,0.152c-0.974,0-1.891-0.596-2.251-1.562c-0.599-1.603-1.131-3.151-1.581-4.6  C37.27,8.548,37.979,7.203,39.246,6.809z M38.556,22.274c0.623,1.38,1.297,2.822,2.028,4.324c0.58,1.194,0.083,2.631-1.111,3.211  c-0.338,0.165-0.696,0.243-1.048,0.243c-0.891,0-1.747-0.498-2.163-1.353c-0.751-1.546-1.445-3.028-2.086-4.448  c-0.546-1.209-0.008-2.632,1.202-3.178C36.586,20.524,38.01,21.064,38.556,22.274z M30.838,8.556  c1.273-0.393,2.614,0.318,3.006,1.584c0.431,1.393,0.945,2.891,1.528,4.453c0.464,1.244-0.168,2.627-1.411,3.091  c-0.277,0.103-0.561,0.152-0.839,0.152c-0.975,0-1.892-0.597-2.252-1.563c-0.614-1.646-1.158-3.231-1.616-4.711  C28.862,10.293,29.571,8.948,30.838,8.556z"/>
</svg>