<svg xmlns="http://www.w3.org/2000/svg" xmlns:xlink="http://www.w3.org/1999/xlink" version="1.1" id="Layer_1" x="0px" y="0px" width="100px" height="100px" viewBox="0 0 100 100" enable-background="new 0 0 100 100" xml:space="preserve">
<path d="M82.162,68.147c0.285-7.013,0.73-14.553-1.054-21.342c-1.397-5.314-7.353-14.82-9.905-19.623  c-0.684-1.289,0.285-7.897,1.231-11.809c0.948-3.921,2.711-7.611,4.362-11.292c0.868-1.95-6.524-5.255-7.393-3.315  c-3.234,7.212-5.549,12.031-5.963,19.811c-0.336,0.239-0.691,0.497-1.063,0.766c2.99-7.724-5.683-15.083-12.804-10.912  c-6.959,4.077-5.088,14.989,2.879,16.457c-1.735,1.01-1.919,1.548-2.635,2.063l0,0c-2.181,1.619-6.209,5.45-8.725,6.476  c-0.32,0.131-0.697,0.175-1.103,0.203c-4.867,0.338-19.443-1.702-19.443-1.702c-3.156-0.279-3.864,7.792-0.704,8.068  c0,0,16.983,0.96,22.638,1.384c0.077,0.006,0.16-0.038,0.237-0.034c1.007,0.043,2-0.229,2.962-1.054  c1.825-1.567,7.669-5.813,7.669-5.813s7.471,13.438,8.621,18.381c0.652,2.803,0.217,11.506,0.217,11.506  c-0.086,0.493-0.241,0.938-0.518,1.287l-8.417,10.622l-17.289-6.91c-2.942-1.184-5.953,6.347-3.006,7.521  c7.157,2.861,14.321,5.706,21.473,8.582c0.289,0.116,0.6,0.086,0.933,0.035c0.544-0.083,1.036-0.151,1.322-0.513  c3.42-4.323,13.697-17.28,13.697-17.28c0.647-0.171,1.125-0.469,1.604-0.509c0.516-0.044,1.483,0.681,1.514,1.326  c0.164,3.48-2.877,15.902-2.877,15.902l-18.017,5.775c-3.027,0.962-0.554,8.68,2.472,7.717c0,0,17.181-3.913,21.897-7.229  c0.457-0.32,0.696-0.877,1.006-1.498c0.079-0.159,0.165-0.311,0.194-0.475C79.191,85.081,82.162,68.147,82.162,68.147z"/>
</svg>