<svg xmlns="http://www.w3.org/2000/svg" xmlns:xlink="http://www.w3.org/1999/xlink" version="1.1" id="Ebene_1" x="0px" y="0px" width="100px" height="100px" viewBox="0 0 100 100" enable-background="new 0 0 100 100" xml:space="preserve">
<path d="M93.374,25.135C84.489,9.631,67.853,0,49.96,0c-8.672,0-17.254,2.292-24.819,6.63C13.555,13.269,5.249,24.024,1.754,36.914  c-3.495,12.888-1.761,26.367,4.88,37.954C15.528,90.37,32.166,100,50.057,100c8.67,0,17.253-2.291,24.821-6.629  C98.79,79.65,107.088,49.04,93.374,25.135z M71.63,87.248c-2.792,1.341-7.338,3.302-10.911,3.753  c-3.965,0.494-8.069,0.331-10.608,0.138c-6.319-3.509-9.946-8.745-10.936-10.323c1.134-1.844,3.305-5.412,4.8-8.109  c1.759-3.169,3.265-6.535,3.969-8.167c10.286-1.302,17.176-3.485,19.1-4.146c1.078,0.799,3.427,2.655,6.602,5.822  c3.133,3.147,4.872,5.367,5.616,6.388C78.153,78.792,73.205,85.305,71.63,87.248z M20.868,20.682  c2.163-2.49,5.832-5.081,8.435-6.766c2.063-0.378,10.066-1.58,16.818,1.049c0.646,1.737,1.618,4.519,2.333,7.319  c0.876,3.452,1.341,7.519,1.516,9.291c-8.001,6.987-11.707,12.629-12.644,14.178c-1.445-0.139-6.552-0.618-9.771-0.77  c-2.57-0.122-7.03-0.182-9.606-0.208c-3.374-8.043-3.543-13.181-3.446-15.069C15.89,27.403,18.296,23.643,20.868,20.682z   M58.766,7.082c2.478,0.244,6.919,0.913,11.087,2.743c4.081,1.799,7.585,4.74,9.586,6.631c1.248,2.511,4.213,9.185,3.699,14.834  l-14.151,8.116c-8.017-5.376-15.961-7.599-18.028-8.113c-0.191-1.887-0.661-5.859-1.524-9.26c-0.703-2.749-1.648-5.477-2.302-7.248  C47.981,13.634,50.865,10.493,58.766,7.082z M91.691,64.813c-5.868,5.761-10.264,6.816-11.749,7  c-0.833-1.125-2.565-3.286-5.578-6.312c-3.165-3.158-5.493-5.014-6.634-5.863c1.718-8.162,1.837-17.291,1.841-19.395l14.123-8.1  c1.474,0.646,5.545,2.922,10.835,9.775c0.445,2.365,0.958,6.212,0.639,10.299C94.843,56.433,92.999,61.594,91.691,64.813z   M17.889,45.789c2.56,0.026,7.045,0.086,9.617,0.208c3.189,0.15,8.257,0.625,9.71,0.765c1.9,7.069,8.351,15.736,9.728,17.533  c-0.722,1.664-2.173,4.886-3.857,7.921c-1.525,2.75-3.762,6.42-4.864,8.21c-9.942,1.43-14.995-0.331-16.613-1.097  c-1.974-2.041-5.117-5.535-7.091-8.987c-1.935-3.368-3.154-7.294-3.789-9.728C13.229,51.841,16.816,47.073,17.889,45.789z   M92.7,65.046c1.327-3.276,3.146-8.423,3.479-12.751c0.319-4.08-0.151-7.853-0.594-10.284c0.318-0.833,0.733-2.287,0.792-4.246  c2.933,11.122,1.697,22.809-3.132,32.934C93.184,68.648,92.891,66.355,92.7,65.046z M83.926,16.106  c-1.058-0.29-2.453-0.57-4.058-0.653c-2.084-1.94-5.535-4.763-9.605-6.557c-4.253-1.867-8.682-2.559-11.247-2.815  c-1.054-0.934-3.223-2.741-5.447-3.902C65.098,3.052,75.871,8.064,83.926,16.106z M26.152,8.392c1.523-0.873,3.098-1.64,4.699-2.338  c-0.676,1.405-1.635,3.844-1.97,6.918c-2.653,1.707-6.48,4.397-8.78,7.046c-2.582,2.973-4.998,6.732-6.417,9.077  c-4.062,1.072-7.281,3.649-9.027,5.317C8.425,23.397,15.96,14.232,26.152,8.392z M8.397,73.858  c-3.204-5.59-5.215-11.639-5.999-17.843c1.938,1.847,5.707,3.979,7.344,4.862c0.644,2.482,1.883,6.469,3.896,9.972  c2.055,3.593,5.252,7.145,7.258,9.211c-0.332,3.74,0.243,6.797,0.71,8.539C16.304,84.705,11.765,79.729,8.397,73.858z   M50.057,97.969c-3.041,0-6.04-0.304-8.97-0.864c3.827-0.856,7.353-3.655,8.838-4.962c1.327,0.103,3.089,0.2,5.051,0.2  c1.851,0,3.877-0.086,5.868-0.334c3.722-0.47,8.315-2.44,11.163-3.81c2.36,0.927,4.011,1.264,5.11,1.353  c-1.051,0.719-2.127,1.414-3.25,2.058C66.608,95.77,58.374,97.969,50.057,97.969z"/>
</svg>