<svg xmlns="http://www.w3.org/2000/svg" xmlns:xlink="http://www.w3.org/1999/xlink" version="1.1" id="Layer_1" x="0px" y="0px" width="100px" height="100px" viewBox="0 0 100 100" enable-background="new 0 0 100 100" xml:space="preserve">
<path d="M82.423,52.607c-6.628,0.445-9.798,6.401-9.798,6.401s3.105,1.262,4.45,3.554c1.584,2.699,0.992,6.82,0.992,6.82  s-1.84-5.427-4.995-7.557c-3.585-2.42-7.917-2.955-10.629-3.105c-6.916-0.385-12.421,0.915-15.849,2.882  c-6.532,3.746-11.143,12.199-11.143,12.199s-0.384-2.786,0.384-3.938c2.113-3.17,5.283-6.82,5.283-6.82s-0.641-8.552-1.986-10.569  c-1.345-2.017-7.685-10.213-7.685-12.807c0-2.594,1.447-16.447,0.192-17.13c-6.964-3.794-2.306-4.61-2.306-4.61  s3.458,5.028,4.419,5.22c0.96,0.192,3.938-1.057,4.995-1.152c1.057-0.096,5.732,1.409,6.404,0.641s1.89-1.665,2.178-1.665  s0.543-1.921-0.129-2.305s2.915-4.27,3.074-5.379c0.288-2.017-7.844-7.46-9.861-9.094c-2.017-1.633-3.203-0.256-5.379,0.384  c-2.403,0.707-9.99,3.458-9.99,3.458c-2.881,1.599-3.587,1.921-6.147,9.993c-0.882,2.784-5.124,33.557-5.893,36.374  c-0.769,2.816-3.587,14.345-3.074,19.211s3.587,8.965,4.355,11.271c0.769,2.305,0.51,6.914,1.024,8.196  c0.513,1.281,6.147,1.793,9.99,1.024s19.468,4.098,27.92,3.586c6.625-0.402,25.835-5.012,33.844-6.393  c2.211-0.38,3.586,0.758,3.586,0.758l-0.032-37.398C90.619,54.656,85.5,52.4,82.423,52.607z M24.148,60.803  c-0.256,3.585,1.537,11.783,1.537,11.783s-2.817-4.612-3.074-11.016c-0.257-6.402,2.05-11.782,2.05-11.782s0,2.305,0.769,3.33  C26.199,54.142,24.405,57.217,24.148,60.803z M57.833,80.908c-8.069,0.257-13.32-6.275-13.32-6.275s8.839,3.715,13.961,2.946  S70,74.89,70,74.89S65.901,80.651,57.833,80.908z"/>
</svg>