<svg xmlns="http://www.w3.org/2000/svg" xmlns:xlink="http://www.w3.org/1999/xlink" version="1.1" id="Layer_1" x="0px" y="0px" width="100px" height="100px" viewBox="0 0 100 100" enable-background="new 0 0 100 100" xml:space="preserve">
<g>
	<g>
		<g>
			<path stroke="#000000" stroke-width="0.25" stroke-miterlimit="10" d="M51,98"/>
		</g>
	</g>
	<g>
		<g>
			<g>
				<g>
					<path fill="#000000" d="M62.259,17.167c-0.158-0.628-0.352-1.208-0.58-1.724c-0.097,0.179-0.123,0.413-0.193,0.575       c-0.193,0.431-0.387,0.772-0.606,1.149H62.259z"/>
				</g>
				<g>
					<path d="M62.419,17.292h-1.758l0.109-0.188c0.214-0.367,0.407-0.706,0.601-1.137c0.027-0.062,0.047-0.139,0.068-0.218       c0.031-0.117,0.067-0.25,0.129-0.365l0.121-0.224l0.104,0.233c0.228,0.514,0.425,1.101,0.587,1.744L62.419,17.292z        M61.096,17.042h1.002c-0.119-0.45-0.257-0.871-0.41-1.254c-0.002,0.008-0.004,0.017-0.007,0.026       c-0.024,0.092-0.049,0.18-0.081,0.254C61.435,16.436,61.271,16.736,61.096,17.042z"/>
				</g>
			</g>
			<g>
				<g>
					<path fill="#000000" d="M62.892,17.167c-0.185-0.718-0.387-1.392-0.65-1.989c-0.105-0.22-0.316-0.386-0.562-0.386       s-0.466,0.167-0.562,0.386c-0.123,0.283-0.158,0.517-0.193,0.552c-0.229,0.53-0.475,0.983-0.721,1.437H62.892z"/>
				</g>
				<g>
					<path d="M63.053,17.292h-3.061l0.101-0.185c0.239-0.442,0.488-0.899,0.715-1.426l0.026-0.039       c-0.003-0.003,0.007-0.042,0.022-0.094c0.028-0.101,0.072-0.253,0.146-0.42c0.121-0.276,0.394-0.461,0.677-0.461       c0.277,0,0.542,0.179,0.675,0.457c0.235,0.532,0.438,1.152,0.659,2.012L63.053,17.292z M60.412,17.042h2.317       c-0.201-0.766-0.39-1.33-0.603-1.813c-0.091-0.188-0.267-0.312-0.448-0.312c-0.186,0-0.366,0.125-0.448,0.312       c-0.065,0.151-0.105,0.289-0.134,0.389c-0.025,0.087-0.04,0.139-0.065,0.176C60.833,16.251,60.621,16.655,60.412,17.042z"/>
				</g>
			</g>
			<g>
				<g>
					<path fill="#000000" d="M62.312,7.011c0-2.186-0.229-4.328-0.668-6.011h1.248c0.439,1.792,0.65,3.875,0.65,6.011       c0,3.484-0.527,6.972-1.477,9.249c-0.158,0.332-0.334,0.602-0.483,0.907h-1.397c0.246-0.453,0.492-0.902,0.721-1.418       C61.767,13.772,62.312,10.343,62.312,7.011z M60.202,1h1.441c-2.637,5.36-6.328,6.774-9.686,8.247       c-3.357,1.554-8.191,2.792-10.652,7.919h-1.389c2.637-6.052,8.279-7.632,11.54-9.06C54.735,6.625,57.776,5.485,60.202,1z"/>
				</g>
				<g>
					<path d="M61.66,17.292h-1.686l0.128-0.236c0.231-0.426,0.471-0.866,0.688-1.358c0.848-1.944,1.396-5.354,1.396-8.686       c0-2.072-0.206-4.063-0.583-5.654c-2.53,4.924-6.042,6.455-9.147,7.809l-0.448,0.195c-0.538,0.25-1.109,0.489-1.715,0.742       c-3.201,1.339-6.829,2.856-8.874,7.118l-0.034,0.071h-1.658l0.076-0.175c2.327-5.34,6.923-7.208,10.28-8.573       c0.473-0.191,0.917-0.373,1.324-0.551l0.596-0.268c2.999-1.342,5.832-2.61,8.09-6.785l0.036-0.065h2.861l0.023,0.095       c0.428,1.744,0.654,3.833,0.654,6.041c0,3.589-0.556,7.065-1.486,9.297c-0.088,0.185-0.178,0.346-0.267,0.504       c-0.076,0.136-0.15,0.269-0.22,0.41L61.66,17.292z M60.395,17.042h1.11c0.061-0.12,0.125-0.235,0.19-0.352       c0.087-0.154,0.175-0.31,0.257-0.484c0.916-2.197,1.465-5.637,1.465-9.195c0-2.148-0.216-4.181-0.624-5.886h-0.988       c0.408,1.638,0.632,3.719,0.632,5.886c0,3.364-0.556,6.813-1.417,8.787C60.82,16.248,60.605,16.652,60.395,17.042z        M40.109,17.042h1.118c2.094-4.294,5.904-5.887,8.969-7.169c0.603-0.252,1.173-0.491,1.709-0.739l0.451-0.197       c3.242-1.414,6.595-2.875,9.085-7.812h-1.165c-2.292,4.197-5.148,5.476-8.172,6.829l-0.596,0.267       c-0.411,0.18-0.858,0.362-1.333,0.555C46.897,10.108,42.419,11.928,40.109,17.042z"/>
				</g>
			</g>
			<g>
				<g>
					<path fill="#000000" d="M41.2,17.167c0.053-0.049,0.114-0.09,0.158-0.152c2.479-5.001,7.277-6.276,10.6-7.758       c3.322-1.5,7.005-2.972,9.615-8.256h-1.389c-2.426,4.458-5.432,5.589-8.728,7.098c-2.944,1.333-7.813,2.622-10.679,7.381       c-0.123-0.197-0.22-0.413-0.299-0.62c-0.422-1.176-0.65-2.765-0.738-4.314C39.724,10.001,39.706,9.48,39.706,9       c0.018-3.439,0.624-5.994,1.582-8h-1.371c-0.896,2.07-1.459,4.638-1.459,7.897V9c0,0.516,0.035,1.055,0.053,1.598       c0.07,1.647,0.316,3.317,0.809,4.709c0.299,0.682,0.615,1.248,0.967,1.769c0.035,0.041,0.07,0.063,0.105,0.09H41.2z"/>
				</g>
				<g>
					<path d="M41.25,17.292h-0.9l-0.033-0.026c-0.051-0.038-0.087-0.064-0.124-0.107c-0.381-0.563-0.701-1.148-0.987-1.8       c-0.46-1.299-0.742-2.94-0.819-4.754c-0.006-0.187-0.014-0.372-0.022-0.556C38.349,9.701,38.333,9.343,38.333,9V8.897       c0-3.022,0.494-5.696,1.469-7.947l0.033-0.075h1.651l-0.085,0.179c-1.04,2.179-1.554,4.779-1.57,7.947       c0,0.457,0.016,0.949,0.033,1.47l0.002,0.07c0.069,1.211,0.251,2.939,0.731,4.276c0.06,0.155,0.121,0.293,0.185,0.416       c2.429-3.89,6.256-5.449,9.062-6.591c0.559-0.228,1.087-0.443,1.562-0.658l0.63-0.286c3.106-1.407,5.789-2.622,8.04-6.757       l0.035-0.065h1.664l-0.089,0.18c-2.521,5.102-6.099,6.708-9.255,8.125L52.01,9.37c-0.494,0.22-1.014,0.433-1.562,0.658       c-3.068,1.257-6.886,2.822-8.977,7.042c-0.049,0.073-0.097,0.113-0.14,0.148c-0.015,0.013-0.03,0.026-0.045,0.04L41.25,17.292z        M40.433,17.042h0.72c0.006-0.005,0.011-0.01,0.017-0.014c0.035-0.03,0.065-0.055,0.086-0.085       c2.123-4.288,5.989-5.872,9.096-7.146c0.548-0.225,1.065-0.437,1.555-0.655l0.421-0.189c3.231-1.45,6.571-2.95,9.043-7.828       h-1.112c-2.284,4.157-5.12,5.441-8.12,6.8l-0.63,0.286c-0.479,0.217-1.01,0.433-1.571,0.662       c-2.973,1.211-6.673,2.718-9.053,6.67l-0.105,0.175l-0.108-0.173c-0.112-0.179-0.213-0.389-0.31-0.641       c-0.491-1.368-0.677-3.121-0.747-4.352l-0.002-0.073C39.597,9.956,39.581,9.462,39.581,9c0.016-3.121,0.51-5.7,1.51-7.875H40       c-0.94,2.204-1.417,4.818-1.417,7.772V9c0,0.337,0.015,0.677,0.03,1.037c0.008,0.185,0.017,0.371,0.022,0.557       c0.076,1.789,0.354,3.405,0.801,4.672c0.28,0.639,0.584,1.194,0.953,1.74C40.398,17.015,40.414,17.027,40.433,17.042z"/>
				</g>
			</g>
		</g>
		<g>
			<g>
				<g>
					<path fill="#000000" d="M62.259,33.333c-0.158-0.629-0.352-1.208-0.58-1.724c-0.097,0.18-0.123,0.413-0.193,0.575       c-0.193,0.431-0.387,0.772-0.606,1.149H62.259z"/>
				</g>
				<g>
					<path d="M62.419,33.458h-1.758l0.109-0.188c0.215-0.369,0.409-0.709,0.601-1.138c0.027-0.062,0.047-0.139,0.068-0.218       c0.031-0.117,0.067-0.249,0.129-0.365l0.121-0.225l0.104,0.233c0.228,0.515,0.426,1.102,0.587,1.745L62.419,33.458z        M61.096,33.208h1.002c-0.119-0.45-0.257-0.871-0.41-1.254c-0.002,0.008-0.004,0.017-0.007,0.026       c-0.024,0.092-0.049,0.18-0.081,0.254C61.436,32.6,61.271,32.901,61.096,33.208z"/>
				</g>
			</g>
			<g>
				<g>
					<path d="M40.812,33.137l-0.12-0.179c-0.371-0.553-0.659-1.074-0.907-1.64c-0.55-1.535-0.729-3.33-0.784-4.566       c-0.196-3.854,0.291-7.007,1.488-9.638l0.228,0.104c-1.18,2.593-1.659,5.708-1.465,9.522c0.077,1.749,0.342,3.3,0.766,4.485       c0.212,0.483,0.458,0.939,0.765,1.414c2.265-4.375,6.173-5.97,9.323-7.256c0.552-0.226,1.075-0.438,1.556-0.655l0.519-0.235       c3.057-1.38,6.218-2.808,8.588-7.386l0.223,0.115c-2.411,4.654-5.612,6.1-8.708,7.499l-0.519,0.235       c-0.486,0.218-1.01,0.432-1.564,0.658c-3.157,1.289-7.085,2.893-9.292,7.329L40.812,33.137z"/>
				</g>
			</g>
			<g>
				<g>
					<path fill="#000000" d="M62.892,33.333c-0.185-0.718-0.387-1.392-0.65-1.989c-0.105-0.22-0.316-0.386-0.562-0.386       s-0.466,0.166-0.562,0.386c-0.123,0.283-0.158,0.516-0.193,0.552c-0.229,0.53-0.475,0.983-0.721,1.437H62.892z"/>
				</g>
				<g>
					<path d="M63.053,33.458h-3.061l0.1-0.185c0.241-0.443,0.49-0.902,0.716-1.427l0.026-0.039       c-0.003-0.004,0.007-0.042,0.022-0.094c0.028-0.101,0.072-0.253,0.146-0.42c0.121-0.276,0.393-0.461,0.677-0.461       c0.277,0,0.542,0.18,0.675,0.457c0.235,0.531,0.438,1.151,0.659,2.012L63.053,33.458z M60.412,33.208h2.317       c-0.201-0.767-0.39-1.331-0.603-1.813c-0.09-0.188-0.267-0.312-0.448-0.312c-0.187,0-0.366,0.125-0.448,0.312       c-0.065,0.151-0.105,0.289-0.134,0.389c-0.025,0.087-0.04,0.139-0.065,0.176C60.834,32.416,60.621,32.821,60.412,33.208z"/>
				</g>
			</g>
			<g>
				<g>
					<path fill="#000000" d="M62.312,23.178c0-2.187-0.229-4.328-0.668-6.012h1.248c0.439,1.792,0.65,3.875,0.65,6.012       c0,3.484-0.527,6.972-1.477,9.248c-0.158,0.333-0.334,0.602-0.483,0.907h-1.397c0.246-0.454,0.492-0.902,0.721-1.419       C61.767,29.939,62.312,26.509,62.312,23.178z M60.202,17.167h1.441c-2.637,5.361-6.328,6.775-9.686,8.248       c-3.357,1.553-8.191,2.792-10.652,7.919h-1.389c2.637-6.052,8.279-7.632,11.54-9.06C54.735,22.792,57.776,21.652,60.202,17.167       z"/>
				</g>
				<g>
					<path d="M61.66,33.458h-1.686l0.135-0.248c0.229-0.422,0.466-0.858,0.682-1.347c0.848-1.943,1.396-5.353,1.396-8.686       c0-2.072-0.206-4.063-0.583-5.654c-2.53,4.924-6.042,6.455-9.147,7.809l-0.448,0.195c-0.537,0.249-1.109,0.488-1.714,0.741       c-3.201,1.338-6.83,2.855-8.875,7.118l-0.034,0.071h-1.658l0.076-0.175c2.327-5.34,6.924-7.209,10.28-8.574       c0.472-0.191,0.917-0.373,1.324-0.551l0.597-0.268c2.999-1.342,5.832-2.609,8.089-6.784l0.036-0.065h2.861l0.023,0.095       c0.428,1.744,0.654,3.833,0.654,6.042c0,3.59-0.556,7.065-1.486,9.296c-0.088,0.185-0.178,0.346-0.267,0.504       c-0.076,0.136-0.15,0.269-0.22,0.41L61.66,33.458z M60.395,33.208h1.11c0.061-0.12,0.126-0.235,0.191-0.352       c0.086-0.154,0.174-0.31,0.256-0.484c0.916-2.197,1.465-5.636,1.465-9.194c0-2.148-0.216-4.181-0.624-5.887h-0.988       c0.408,1.638,0.632,3.72,0.632,5.887c0,3.364-0.556,6.813-1.417,8.786C60.82,32.415,60.605,32.819,60.395,33.208z        M40.109,33.208h1.118c2.095-4.295,5.905-5.888,8.971-7.17c0.603-0.252,1.171-0.49,1.708-0.738l0.45-0.197       c3.243-1.414,6.596-2.875,9.086-7.812h-1.165c-2.292,4.197-5.148,5.475-8.171,6.828l-0.597,0.268       c-0.411,0.18-0.858,0.362-1.333,0.555C46.897,26.275,42.419,28.095,40.109,33.208z"/>
				</g>
			</g>
			<g>
				<g>
					<path fill="#000000" d="M41.2,33.333c0.053-0.049,0.114-0.09,0.158-0.153c2.479-5.001,7.277-6.276,10.6-7.758       c3.322-1.5,7.005-2.972,9.615-8.256h-1.389c-2.426,4.458-5.432,5.589-8.728,7.098c-2.944,1.333-7.813,2.622-10.679,7.381       c-0.123-0.198-0.22-0.413-0.299-0.62c-0.422-1.176-0.65-2.766-0.738-4.314c-0.018-0.543-0.035-1.064-0.035-1.544       c0.018-3.439,0.624-5.994,1.582-8h-1.371c-0.896,2.07-1.459,4.638-1.459,7.897v0.104c0,0.516,0.035,1.055,0.053,1.598       c0.07,1.648,0.316,3.318,0.809,4.709c0.299,0.683,0.615,1.248,0.967,1.769c0.035,0.041,0.07,0.063,0.105,0.09H41.2z"/>
				</g>
				<g>
					<path d="M41.25,33.458h-0.9l-0.033-0.026c-0.051-0.038-0.087-0.064-0.124-0.107c-0.387-0.572-0.698-1.141-0.987-1.801       c-0.459-1.298-0.741-2.939-0.819-4.754c-0.006-0.187-0.014-0.371-0.022-0.555c-0.015-0.347-0.031-0.707-0.031-1.049v-0.104       c0-3.022,0.494-5.696,1.469-7.947l0.033-0.075h1.651l-0.085,0.179c-1.04,2.179-1.554,4.779-1.57,7.947       c0,0.457,0.016,0.948,0.033,1.469l0.002,0.071c0.069,1.211,0.251,2.939,0.731,4.276c0.059,0.154,0.121,0.292,0.185,0.416       c2.429-3.891,6.256-5.449,9.061-6.591c0.559-0.228,1.087-0.443,1.562-0.658l0.631-0.287c3.106-1.407,5.788-2.622,8.039-6.757       l0.035-0.065h1.664l-0.089,0.18c-2.521,5.102-6.099,6.708-9.255,8.125l-0.421,0.189c-0.494,0.22-1.014,0.433-1.562,0.658       c-3.068,1.257-6.886,2.822-8.977,7.042c-0.049,0.073-0.098,0.114-0.14,0.149L41.25,33.458z M40.433,33.208h0.72       c0.005-0.004,0.011-0.009,0.017-0.014c0.035-0.03,0.065-0.055,0.086-0.085c2.124-4.289,5.99-5.873,9.097-7.146       c0.548-0.225,1.065-0.437,1.555-0.655l0.421-0.189c3.231-1.45,6.571-2.95,9.043-7.828h-1.112       c-2.284,4.157-5.119,5.441-8.119,6.8l-0.631,0.287c-0.479,0.217-1.01,0.433-1.571,0.662c-2.973,1.211-6.673,2.718-9.052,6.67       l-0.105,0.175l-0.108-0.173c-0.112-0.18-0.213-0.39-0.31-0.641c-0.491-1.368-0.677-3.122-0.747-4.352l-0.002-0.074       c-0.017-0.522-0.033-1.016-0.033-1.478c0.016-3.121,0.51-5.7,1.51-7.875H40c-0.94,2.204-1.417,4.818-1.417,7.772v0.104       c0,0.337,0.015,0.677,0.031,1.038c0.008,0.184,0.016,0.37,0.022,0.556c0.076,1.789,0.354,3.405,0.801,4.672       c0.28,0.638,0.583,1.193,0.953,1.741C40.398,33.182,40.414,33.194,40.433,33.208z"/>
				</g>
			</g>
		</g>
		<g>
			<g>
				<g>
					<path fill="#000000" d="M62.259,49.5c-0.158-0.628-0.352-1.208-0.58-1.724c-0.097,0.18-0.123,0.413-0.193,0.575       c-0.193,0.431-0.387,0.772-0.606,1.149H62.259z"/>
				</g>
				<g>
					<path d="M62.419,49.625h-1.758l0.109-0.188c0.215-0.367,0.407-0.706,0.601-1.138c0.027-0.062,0.047-0.139,0.068-0.218       c0.031-0.117,0.067-0.249,0.129-0.365l0.121-0.225l0.104,0.233c0.228,0.515,0.426,1.102,0.587,1.744L62.419,49.625z        M61.096,49.375h1.002c-0.119-0.45-0.257-0.87-0.41-1.254c-0.002,0.009-0.004,0.017-0.007,0.026       c-0.024,0.092-0.049,0.18-0.081,0.254C61.435,48.769,61.271,49.07,61.096,49.375z"/>
				</g>
			</g>
			<g>
				<g>
					<path d="M40.812,49.304l-0.12-0.179c-0.372-0.554-0.66-1.076-0.907-1.64c-0.55-1.536-0.729-3.33-0.784-4.566       c-0.196-3.854,0.291-7.007,1.488-9.638l0.228,0.104c-1.18,2.593-1.659,5.708-1.465,9.522c0.077,1.749,0.342,3.299,0.766,4.485       c0.211,0.482,0.458,0.938,0.765,1.414c2.265-4.375,6.174-5.971,9.324-7.257c0.553-0.225,1.074-0.438,1.556-0.654l0.52-0.235       c3.057-1.38,6.217-2.808,8.587-7.385l0.223,0.115c-2.41,4.654-5.611,6.1-8.707,7.498l-0.52,0.235       c-0.486,0.218-1.01,0.432-1.563,0.658c-3.157,1.289-7.086,2.893-9.292,7.33L40.812,49.304z"/>
				</g>
			</g>
			<g>
				<g>
					<path fill="#000000" d="M62.892,49.5c-0.185-0.718-0.387-1.392-0.65-1.989c-0.105-0.22-0.316-0.386-0.562-0.386       s-0.466,0.166-0.562,0.386c-0.123,0.283-0.158,0.516-0.193,0.552c-0.229,0.53-0.475,0.983-0.721,1.437H62.892z"/>
				</g>
				<g>
					<path d="M63.053,49.625h-3.061l0.1-0.185c0.243-0.447,0.491-0.904,0.716-1.426l0.025-0.038       c-0.002-0.004,0.008-0.043,0.022-0.095c0.029-0.101,0.073-0.253,0.146-0.42C61.123,47.185,61.395,47,61.679,47       c0.277,0,0.542,0.18,0.675,0.457c0.235,0.532,0.438,1.152,0.659,2.012L63.053,49.625z M60.412,49.375h2.317       c-0.201-0.766-0.39-1.33-0.603-1.813c-0.09-0.188-0.267-0.312-0.448-0.312c-0.187,0-0.366,0.125-0.448,0.312       c-0.065,0.152-0.105,0.289-0.135,0.389c-0.024,0.087-0.039,0.139-0.063,0.176C60.834,48.583,60.621,48.987,60.412,49.375z"/>
				</g>
			</g>
			<g>
				<g>
					<path fill="#000000" d="M62.312,39.345c0-2.187-0.229-4.328-0.668-6.011h1.248c0.439,1.791,0.65,3.875,0.65,6.011       c0,3.484-0.527,6.972-1.477,9.249c-0.158,0.332-0.334,0.602-0.483,0.907h-1.397c0.246-0.454,0.492-0.902,0.721-1.418       C61.767,46.106,62.312,42.676,62.312,39.345z M60.202,33.333h1.441c-2.637,5.36-6.328,6.774-9.686,8.247       c-3.357,1.553-8.191,2.792-10.652,7.919h-1.389c2.637-6.052,8.279-7.632,11.54-9.06C54.735,38.958,57.776,37.818,60.202,33.333       z"/>
				</g>
				<g>
					<path d="M61.66,49.625h-1.686l0.135-0.249c0.229-0.422,0.466-0.858,0.682-1.346c0.848-1.944,1.396-5.354,1.396-8.686       c0-2.072-0.206-4.063-0.583-5.654c-2.53,4.924-6.042,6.455-9.147,7.809l-0.448,0.195c-0.537,0.249-1.109,0.488-1.714,0.741       c-3.201,1.338-6.83,2.855-8.875,7.118l-0.034,0.071h-1.658l0.076-0.175c2.327-5.341,6.925-7.209,10.282-8.574       c0.471-0.191,0.916-0.372,1.322-0.551l0.598-0.268c2.999-1.342,5.831-2.61,8.088-6.784l0.036-0.065h2.861l0.023,0.095       c0.428,1.744,0.654,3.833,0.654,6.041c0,3.589-0.556,7.065-1.486,9.297c-0.088,0.185-0.178,0.346-0.267,0.504       c-0.076,0.136-0.15,0.269-0.22,0.41L61.66,49.625z M60.395,49.375h1.11c0.061-0.12,0.125-0.235,0.19-0.352       c0.087-0.154,0.175-0.31,0.257-0.484c0.916-2.197,1.465-5.637,1.465-9.195c0-2.148-0.216-4.181-0.624-5.886h-0.988       c0.408,1.638,0.632,3.719,0.632,5.886c0,3.364-0.556,6.813-1.417,8.787C60.82,48.582,60.605,48.986,60.395,49.375z        M40.109,49.375h1.118c2.095-4.295,5.905-5.888,8.971-7.17c0.603-0.252,1.171-0.49,1.708-0.738l0.451-0.197       c3.242-1.414,6.595-2.875,9.085-7.812h-1.165c-2.292,4.196-5.147,5.474-8.17,6.827l-0.598,0.269       c-0.411,0.18-0.857,0.361-1.331,0.554C46.898,42.441,42.419,44.261,40.109,49.375z"/>
				</g>
			</g>
			<g>
				<g>
					<path fill="#000000" d="M41.2,49.5c0.053-0.049,0.114-0.09,0.158-0.153c2.479-5.001,7.277-6.276,10.6-7.758       c3.322-1.5,7.005-2.972,9.615-8.256h-1.389c-2.426,4.458-5.432,5.589-8.728,7.098c-2.944,1.333-7.813,2.622-10.679,7.381       c-0.123-0.198-0.22-0.413-0.299-0.62c-0.422-1.176-0.65-2.766-0.738-4.314c-0.018-0.543-0.035-1.064-0.035-1.544       c0.018-3.439,0.624-5.993,1.582-8h-1.371c-0.896,2.069-1.459,4.638-1.459,7.897v0.103c0,0.517,0.035,1.055,0.053,1.598       c0.07,1.648,0.316,3.318,0.809,4.71c0.299,0.682,0.615,1.248,0.967,1.769c0.035,0.041,0.07,0.063,0.105,0.09H41.2z"/>
				</g>
				<g>
					<path d="M41.25,49.625h-0.9l-0.033-0.026c-0.051-0.038-0.087-0.064-0.124-0.107c-0.381-0.563-0.701-1.148-0.987-1.8       c-0.46-1.299-0.742-2.94-0.819-4.755c-0.006-0.187-0.014-0.371-0.022-0.555c-0.015-0.347-0.031-0.706-0.031-1.049V41.23       c0-3.022,0.494-5.696,1.469-7.947l0.033-0.075h1.651l-0.085,0.179c-1.04,2.179-1.554,4.778-1.57,7.947       c0,0.458,0.016,0.95,0.033,1.472l0.002,0.068c0.069,1.211,0.251,2.939,0.731,4.276c0.059,0.154,0.121,0.292,0.185,0.416       c2.429-3.89,6.256-5.449,9.062-6.591c0.559-0.228,1.087-0.443,1.562-0.658l0.63-0.286c3.106-1.407,5.789-2.622,8.04-6.757       l0.035-0.065h1.664l-0.089,0.18c-2.521,5.102-6.098,6.708-9.254,8.125l-0.422,0.189c-0.494,0.22-1.014,0.434-1.564,0.659       c-3.067,1.257-6.885,2.822-8.976,7.041c-0.049,0.073-0.098,0.114-0.14,0.149L41.25,49.625z M40.433,49.375h0.72       c0.005-0.005,0.011-0.009,0.017-0.014c0.035-0.03,0.065-0.055,0.086-0.085c2.123-4.288,5.989-5.872,9.095-7.145       c0.548-0.225,1.066-0.437,1.556-0.656l0.422-0.19c3.23-1.45,6.57-2.95,9.042-7.827h-1.112c-2.284,4.157-5.12,5.441-8.12,6.8       l-0.63,0.286c-0.479,0.217-1.01,0.433-1.571,0.662c-2.973,1.211-6.673,2.718-9.053,6.67l-0.105,0.175l-0.108-0.173       c-0.112-0.18-0.213-0.389-0.31-0.641c-0.491-1.368-0.677-3.122-0.747-4.352l-0.002-0.071c-0.017-0.524-0.033-1.018-0.033-1.48       c0.016-3.121,0.51-5.699,1.51-7.875H40c-0.94,2.203-1.417,4.817-1.417,7.772v0.103c0,0.337,0.015,0.678,0.031,1.038       c0.008,0.184,0.016,0.37,0.022,0.556c0.076,1.789,0.354,3.405,0.801,4.672c0.28,0.639,0.584,1.194,0.953,1.74       C40.398,49.349,40.414,49.36,40.433,49.375z"/>
				</g>
			</g>
		</g>
		<g>
			<g>
				<g>
					<path fill="#000000" d="M62.259,65.667c-0.158-0.629-0.352-1.208-0.58-1.725c-0.097,0.18-0.123,0.413-0.193,0.575       c-0.193,0.431-0.387,0.771-0.606,1.149H62.259z"/>
				</g>
				<g>
					<path d="M62.419,65.792h-1.757l0.108-0.188c0.216-0.371,0.409-0.712,0.601-1.138c0.027-0.063,0.047-0.14,0.068-0.219       c0.031-0.116,0.066-0.249,0.129-0.365l0.121-0.225l0.104,0.233c0.228,0.516,0.426,1.103,0.587,1.745L62.419,65.792z        M61.096,65.542h1.002c-0.119-0.45-0.257-0.87-0.41-1.255c-0.002,0.009-0.004,0.018-0.007,0.026       c-0.024,0.092-0.049,0.18-0.081,0.254C61.437,64.933,61.272,65.234,61.096,65.542z"/>
				</g>
			</g>
			<g>
				<g>
					<path fill="#000000" d="M62.892,65.667c-0.185-0.719-0.387-1.392-0.65-1.989c-0.105-0.22-0.316-0.386-0.562-0.386       s-0.466,0.166-0.562,0.386c-0.123,0.283-0.158,0.517-0.193,0.553c-0.229,0.529-0.475,0.982-0.721,1.437H62.892z"/>
				</g>
				<g>
					<path d="M63.053,65.792h-3.061l0.1-0.185c0.245-0.452,0.492-0.907,0.716-1.427l0.025-0.037       c-0.002-0.005,0.008-0.043,0.022-0.095c0.029-0.102,0.073-0.254,0.146-0.421c0.121-0.276,0.393-0.461,0.677-0.461       c0.277,0,0.542,0.18,0.675,0.457c0.236,0.533,0.438,1.152,0.659,2.012L63.053,65.792z M60.412,65.542h2.317       c-0.201-0.765-0.389-1.329-0.603-1.813c-0.09-0.188-0.267-0.312-0.448-0.312c-0.187,0-0.366,0.125-0.448,0.312       c-0.065,0.151-0.105,0.289-0.134,0.389c-0.025,0.088-0.04,0.14-0.064,0.177C60.834,64.75,60.621,65.154,60.412,65.542z"/>
				</g>
			</g>
			<g>
				<g>
					<path fill="#000000" d="M62.312,55.512c0-2.187-0.229-4.328-0.668-6.012h1.248c0.439,1.791,0.65,3.874,0.65,6.012       c0,3.483-0.527,6.972-1.477,9.248c-0.158,0.332-0.334,0.602-0.483,0.907h-1.397c0.246-0.454,0.492-0.902,0.721-1.419       C61.767,62.272,62.312,58.843,62.312,55.512z M60.202,49.5h1.441c-2.637,5.36-6.328,6.774-9.686,8.247       c-3.357,1.554-8.191,2.793-10.652,7.92h-1.389c2.637-6.052,8.279-7.633,11.54-9.061C54.735,55.125,57.776,53.985,60.202,49.5z"/>
				</g>
				<g>
					<path d="M61.66,65.792h-1.686l0.141-0.26c0.228-0.418,0.462-0.852,0.676-1.335c0.848-1.944,1.396-5.354,1.396-8.686       c0-2.072-0.206-4.063-0.583-5.654c-2.53,4.924-6.042,6.455-9.147,7.809l-0.448,0.195c-0.537,0.249-1.109,0.488-1.715,0.741       c-3.201,1.339-6.829,2.856-8.875,7.118l-0.034,0.071h-1.658l0.076-0.175c2.327-5.341,6.924-7.21,10.281-8.574       c0.471-0.191,0.917-0.373,1.323-0.551l0.598-0.269c2.999-1.342,5.831-2.609,8.088-6.783l0.036-0.065h2.861l0.023,0.095       c0.428,1.744,0.654,3.833,0.654,6.042c0,3.589-0.556,7.064-1.486,9.296c-0.088,0.185-0.178,0.346-0.266,0.503       c-0.076,0.136-0.151,0.27-0.221,0.411L61.66,65.792z M60.395,65.542h1.11c0.062-0.12,0.126-0.236,0.191-0.354       c0.086-0.153,0.174-0.31,0.256-0.482c0.916-2.197,1.465-5.637,1.465-9.194c0-2.148-0.216-4.182-0.624-5.887h-0.988       c0.408,1.638,0.632,3.72,0.632,5.887c0,3.363-0.556,6.812-1.417,8.786C60.82,64.749,60.605,65.153,60.395,65.542z        M40.109,65.542h1.118c2.095-4.295,5.905-5.888,8.97-7.17c0.603-0.252,1.172-0.49,1.708-0.738l0.451-0.197       c3.242-1.413,6.595-2.874,9.085-7.812h-1.165c-2.292,4.196-5.147,5.475-8.17,6.827l-0.598,0.269       c-0.411,0.18-0.858,0.361-1.331,0.554C46.897,58.607,42.419,60.428,40.109,65.542z"/>
				</g>
			</g>
			<g>
				<g>
					<path fill="#000000" d="M41.2,65.667c0.053-0.05,0.114-0.09,0.158-0.153c2.479-5.001,7.277-6.276,10.6-7.758       c3.322-1.499,7.005-2.972,9.615-8.256h-1.389c-2.426,4.458-5.432,5.59-8.728,7.098c-2.944,1.334-7.813,2.622-10.679,7.381       c-0.123-0.197-0.22-0.413-0.299-0.619c-0.422-1.177-0.65-2.766-0.738-4.314c-0.018-0.544-0.035-1.064-0.035-1.545       c0.018-3.438,0.624-5.993,1.582-8h-1.371c-0.896,2.069-1.459,4.638-1.459,7.897V57.5c0,0.517,0.035,1.056,0.053,1.599       c0.07,1.647,0.316,3.317,0.809,4.709c0.299,0.683,0.615,1.248,0.967,1.77c0.035,0.04,0.07,0.062,0.105,0.09H41.2z"/>
				</g>
				<g>
					<path d="M41.25,65.792h-0.901l-0.034-0.026c-0.052-0.039-0.086-0.064-0.123-0.106c-0.388-0.573-0.699-1.142-0.988-1.802       c-0.459-1.298-0.741-2.938-0.819-4.754c-0.006-0.186-0.014-0.371-0.022-0.554c-0.015-0.348-0.031-0.707-0.031-1.05v-0.103       c0-3.022,0.494-5.696,1.469-7.947l0.033-0.075h1.651l-0.085,0.179c-1.04,2.179-1.554,4.778-1.57,7.947       c0,0.456,0.016,0.947,0.033,1.468l0.002,0.072c0.069,1.211,0.251,2.938,0.731,4.276c0.06,0.154,0.121,0.293,0.185,0.416       c2.429-3.89,6.255-5.448,9.06-6.591c0.56-0.229,1.088-0.443,1.563-0.659l0.628-0.285c3.107-1.406,5.791-2.621,8.042-6.758       l0.035-0.065h1.664l-0.089,0.18c-2.521,5.103-6.1,6.708-9.256,8.125l-0.42,0.189c-0.494,0.22-1.013,0.433-1.562,0.657       c-3.068,1.258-6.886,2.822-8.978,7.042c-0.049,0.073-0.097,0.113-0.139,0.148c-0.016,0.014-0.031,0.026-0.045,0.04       L41.25,65.792z M40.434,65.542h0.719c0.006-0.005,0.012-0.01,0.018-0.015c0.035-0.029,0.064-0.055,0.085-0.085       c2.124-4.288,5.99-5.873,9.097-7.146c0.547-0.224,1.065-0.436,1.554-0.654l0.42-0.188c3.231-1.45,6.571-2.95,9.044-7.828       h-1.112c-2.285,4.158-5.121,5.442-8.123,6.802l-0.627,0.284c-0.479,0.218-1.011,0.435-1.572,0.663       c-2.973,1.211-6.672,2.718-9.051,6.669l-0.105,0.175l-0.108-0.173c-0.111-0.179-0.212-0.388-0.31-0.641       c-0.491-1.368-0.677-3.122-0.747-4.353l-0.002-0.075c-0.017-0.522-0.033-1.016-0.033-1.477c0.016-3.121,0.51-5.699,1.51-7.875       H40c-0.94,2.203-1.417,4.817-1.417,7.772V57.5c0,0.337,0.015,0.678,0.031,1.038c0.008,0.185,0.016,0.37,0.022,0.557       c0.076,1.789,0.354,3.404,0.801,4.671c0.279,0.638,0.583,1.193,0.953,1.741C40.397,65.515,40.414,65.527,40.434,65.542z"/>
				</g>
			</g>
		</g>
		<g>
			<g>
				<g>
					<path fill="#000000" d="M62.259,81.833c-0.158-0.628-0.352-1.207-0.58-1.724c-0.097,0.18-0.123,0.413-0.193,0.574       c-0.193,0.432-0.387,0.772-0.606,1.149H62.259z"/>
				</g>
				<g>
					<path d="M62.419,81.958h-1.758l0.109-0.188c0.215-0.368,0.408-0.708,0.601-1.138c0.027-0.062,0.047-0.139,0.068-0.218       c0.031-0.117,0.067-0.249,0.129-0.365l0.121-0.225l0.104,0.233c0.228,0.515,0.425,1.102,0.587,1.744L62.419,81.958z        M61.096,81.708h1.002c-0.119-0.45-0.257-0.87-0.41-1.254c-0.002,0.009-0.004,0.017-0.007,0.025       c-0.024,0.092-0.049,0.18-0.081,0.254C61.436,81.101,61.271,81.402,61.096,81.708z"/>
				</g>
			</g>
			<g>
				<g>
					<path fill="#000000" d="M62.892,81.833c-0.185-0.718-0.387-1.392-0.65-1.988c-0.105-0.22-0.316-0.387-0.562-0.387       s-0.466,0.167-0.562,0.387c-0.123,0.282-0.158,0.516-0.193,0.552c-0.229,0.53-0.475,0.983-0.721,1.437H62.892z"/>
				</g>
				<g>
					<path d="M63.053,81.958h-3.061l0.101-0.185c0.24-0.443,0.489-0.901,0.715-1.427l0.025-0.037       c-0.002-0.005,0.008-0.043,0.022-0.095c0.029-0.101,0.073-0.253,0.146-0.42c0.121-0.276,0.394-0.462,0.677-0.462       c0.276,0,0.542,0.18,0.675,0.458c0.235,0.53,0.438,1.149,0.659,2.011L63.053,81.958z M60.412,81.708h2.317       c-0.202-0.767-0.39-1.331-0.603-1.812c-0.091-0.188-0.267-0.312-0.448-0.312c-0.186,0-0.366,0.125-0.448,0.312       c-0.066,0.151-0.105,0.288-0.135,0.389c-0.024,0.087-0.04,0.139-0.063,0.176C60.834,80.916,60.621,81.32,60.412,81.708z"/>
				</g>
			</g>
			<g>
				<g>
					<path fill="#000000" d="M62.312,71.678c0-2.186-0.229-4.327-0.668-6.011h1.248c0.439,1.791,0.65,3.874,0.65,6.011       c0,3.484-0.527,6.973-1.477,9.249c-0.158,0.332-0.334,0.602-0.483,0.906h-1.397c0.246-0.453,0.492-0.902,0.721-1.418       C61.767,78.439,62.312,75.01,62.312,71.678z M60.202,65.667h1.441c-2.637,5.36-6.328,6.774-9.686,8.247       c-3.357,1.553-8.191,2.792-10.652,7.919h-1.389c2.637-6.052,8.279-7.632,11.54-9.06C54.735,71.292,57.776,70.151,60.202,65.667       z"/>
				</g>
				<g>
					<path d="M61.66,81.958h-1.686l0.128-0.236c0.231-0.426,0.471-0.866,0.688-1.357c0.848-1.944,1.396-5.354,1.396-8.687       c0-2.071-0.206-4.062-0.583-5.653c-2.53,4.924-6.042,6.455-9.147,7.809l-0.448,0.195c-0.537,0.249-1.108,0.487-1.713,0.74       c-3.202,1.339-6.831,2.855-8.876,7.118l-0.034,0.071h-1.658l0.076-0.175c2.327-5.34,6.923-7.209,10.28-8.573       c0.473-0.191,0.917-0.372,1.324-0.551l0.596-0.268c2.999-1.342,5.832-2.61,8.09-6.784l0.036-0.065h2.861l0.023,0.095       c0.428,1.744,0.654,3.833,0.654,6.041c0,3.59-0.556,7.065-1.486,9.297c-0.088,0.186-0.179,0.348-0.268,0.506       c-0.075,0.135-0.15,0.268-0.219,0.407L61.66,81.958z M60.395,81.708h1.11c0.061-0.119,0.125-0.233,0.19-0.35       c0.086-0.154,0.174-0.312,0.257-0.485c0.916-2.197,1.465-5.637,1.465-9.195c0-2.148-0.216-4.181-0.624-5.886h-0.988       c0.408,1.638,0.632,3.719,0.632,5.886c0,3.364-0.556,6.813-1.417,8.787C60.82,80.915,60.605,81.319,60.395,81.708z        M40.109,81.708h1.118c2.095-4.295,5.906-5.889,8.972-7.17c0.602-0.252,1.17-0.489,1.707-0.737l0.451-0.197       c3.242-1.413,6.595-2.874,9.085-7.812h-1.165c-2.292,4.196-5.148,5.475-8.172,6.828l-0.596,0.268       c-0.411,0.18-0.858,0.361-1.333,0.554C46.897,74.774,42.419,76.595,40.109,81.708z"/>
				</g>
			</g>
			<g>
				<g>
					<path fill="#000000" d="M41.2,81.833c0.053-0.049,0.114-0.09,0.158-0.152c2.479-5.001,7.277-6.276,10.6-7.758       c3.322-1.499,7.005-2.972,9.615-8.256h-1.389c-2.426,4.458-5.432,5.589-8.728,7.098c-2.944,1.333-7.813,2.622-10.679,7.381       c-0.123-0.198-0.22-0.413-0.299-0.62c-0.422-1.176-0.65-2.766-0.738-4.314c-0.018-0.543-0.035-1.063-0.035-1.544       c0.018-3.439,0.624-5.993,1.582-8h-1.371c-0.896,2.069-1.459,4.638-1.459,7.896v0.104c0,0.517,0.035,1.055,0.053,1.599       c0.07,1.647,0.316,3.317,0.809,4.709c0.299,0.683,0.615,1.248,0.967,1.769c0.035,0.041,0.07,0.063,0.105,0.09H41.2z"/>
				</g>
				<g>
					<path d="M41.249,81.958H40.35l-0.034-0.025c-0.048-0.035-0.087-0.063-0.125-0.108c-0.387-0.57-0.697-1.139-0.987-1.8       c-0.459-1.298-0.741-2.938-0.819-4.754c-0.006-0.187-0.014-0.372-0.022-0.556c-0.015-0.347-0.031-0.705-0.031-1.048v-0.104       c0-3.022,0.494-5.695,1.469-7.946l0.033-0.075h1.651l-0.085,0.179c-1.04,2.179-1.554,4.778-1.57,7.947       c0,0.457,0.016,0.948,0.033,1.47l0.002,0.069c0.069,1.212,0.251,2.94,0.731,4.276c0.059,0.154,0.12,0.292,0.185,0.416       c2.43-3.891,6.257-5.449,9.063-6.592c0.559-0.228,1.086-0.442,1.56-0.657l0.632-0.287c3.105-1.406,5.788-2.621,8.038-6.756       l0.035-0.065h1.664l-0.089,0.181c-2.521,5.103-6.1,6.708-9.256,8.125l-0.42,0.189c-0.494,0.22-1.013,0.433-1.562,0.657       c-3.068,1.258-6.886,2.822-8.978,7.042c-0.05,0.073-0.099,0.114-0.141,0.15L41.249,81.958z M40.433,81.708h0.721       c0.005-0.004,0.01-0.009,0.015-0.013c0.034-0.028,0.066-0.056,0.088-0.087c2.123-4.287,5.99-5.872,9.097-7.146       c0.547-0.224,1.065-0.436,1.554-0.654l0.42-0.188c3.231-1.45,6.571-2.95,9.044-7.828h-1.112c-2.284,4.156-5.118,5.44-8.118,6.8       l-0.632,0.286c-0.479,0.218-1.009,0.433-1.569,0.661c-2.973,1.211-6.674,2.718-9.054,6.671l-0.105,0.175l-0.107-0.173       c-0.113-0.182-0.214-0.392-0.31-0.642c-0.49-1.367-0.676-3.121-0.747-4.353l-0.002-0.072c-0.017-0.522-0.033-1.017-0.033-1.479       c0.016-3.121,0.51-5.699,1.51-7.875H40c-0.94,2.203-1.417,4.817-1.417,7.771v0.104c0,0.337,0.015,0.677,0.03,1.037       c0.008,0.185,0.017,0.371,0.022,0.558c0.076,1.789,0.354,3.404,0.801,4.671c0.28,0.639,0.583,1.194,0.953,1.74       C40.398,81.683,40.414,81.694,40.433,81.708z"/>
				</g>
			</g>
		</g>
		<g>
			<g>
				<g>
					<path fill="#000000" d="M62.259,98c-0.158-0.629-0.352-1.208-0.58-1.724c-0.097,0.18-0.123,0.413-0.193,0.574       c-0.193,0.431-0.387,0.772-0.606,1.149H62.259z"/>
				</g>
				<g>
					<path d="M62.419,98.125h-1.758l0.109-0.188c0.214-0.366,0.406-0.705,0.601-1.138c0.027-0.062,0.047-0.139,0.068-0.218       c0.031-0.117,0.067-0.249,0.129-0.365l0.121-0.225l0.104,0.233c0.228,0.514,0.425,1.101,0.587,1.744L62.419,98.125z        M61.096,97.875h1.002c-0.119-0.45-0.257-0.871-0.409-1.254c-0.003,0.008-0.005,0.017-0.008,0.025       c-0.024,0.092-0.049,0.18-0.081,0.254C61.435,97.268,61.267,97.576,61.096,97.875z"/>
				</g>
			</g>
			<g>
				<g>
					<path d="M40.812,97.804l-0.12-0.179c-0.37-0.552-0.659-1.073-0.907-1.641c-0.55-1.534-0.729-3.329-0.784-4.564       c-0.196-3.854,0.291-7.008,1.488-9.639l0.228,0.104c-1.18,2.594-1.659,5.709-1.465,9.523c0.077,1.748,0.342,3.299,0.766,4.484       c0.212,0.484,0.458,0.94,0.765,1.414c2.265-4.374,6.173-5.97,9.323-7.255c0.553-0.226,1.074-0.439,1.557-0.655l0.518-0.234       c3.058-1.381,6.219-2.809,8.589-7.387l0.223,0.115c-2.411,4.655-5.612,6.101-8.709,7.499l-0.518,0.235       c-0.486,0.218-1.01,0.432-1.564,0.658c-3.157,1.288-7.085,2.892-9.292,7.328L40.812,97.804z"/>
				</g>
			</g>
			<g>
				<g>
					<path fill="#000000" d="M62.892,98c-0.185-0.719-0.387-1.392-0.65-1.989c-0.105-0.22-0.316-0.386-0.562-0.386       s-0.466,0.166-0.562,0.386c-0.123,0.283-0.158,0.517-0.193,0.553c-0.229,0.529-0.475,0.983-0.721,1.437H62.892z"/>
				</g>
				<g>
					<path d="M63.053,98.125h-3.061l0.101-0.185c0.239-0.441,0.487-0.897,0.715-1.427l0.025-0.037       c-0.002-0.005,0.008-0.043,0.022-0.095c0.029-0.102,0.073-0.254,0.146-0.421c0.121-0.276,0.393-0.461,0.677-0.461       c0.277,0,0.542,0.18,0.675,0.457c0.236,0.533,0.438,1.152,0.659,2.012L63.053,98.125z M60.412,97.875h2.317       c-0.201-0.765-0.389-1.329-0.603-1.813c-0.09-0.188-0.267-0.312-0.448-0.312c-0.187,0-0.366,0.125-0.448,0.312       c-0.065,0.151-0.105,0.289-0.134,0.389c-0.025,0.088-0.04,0.14-0.064,0.177C60.833,97.086,60.621,97.489,60.412,97.875z"/>
				</g>
			</g>
			<g>
				<g>
					<path fill="#000000" d="M62.312,87.845c0-2.187-0.229-4.328-0.668-6.012h1.248c0.439,1.792,0.65,3.875,0.65,6.012       c0,3.483-0.527,6.973-1.477,9.248c-0.158,0.333-0.334,0.602-0.483,0.907h-1.397c0.246-0.453,0.492-0.902,0.721-1.419       C61.767,94.605,62.312,91.176,62.312,87.845z M60.202,81.833h1.441c-2.637,5.36-6.328,6.775-9.686,8.247       c-3.357,1.554-8.191,2.793-10.652,7.92h-1.389c2.637-6.052,8.279-7.632,11.54-9.06C54.735,87.459,57.776,86.318,60.202,81.833z       "/>
				</g>
				<g>
					<path d="M61.66,98.125h-1.686l0.128-0.236c0.231-0.426,0.471-0.866,0.688-1.358c0.848-1.944,1.396-5.354,1.396-8.686       c0-2.072-0.206-4.063-0.583-5.654c-2.531,4.926-6.045,6.457-9.151,7.811l-0.444,0.193c-0.537,0.249-1.109,0.488-1.715,0.741       c-3.201,1.339-6.829,2.856-8.875,7.118l-0.034,0.071h-1.658l0.076-0.175c2.327-5.34,6.923-7.209,10.28-8.573       c0.473-0.191,0.917-0.372,1.324-0.551l0.596-0.268c2.999-1.342,5.832-2.61,8.09-6.785l0.036-0.065h2.861l0.023,0.096       c0.428,1.744,0.654,3.833,0.654,6.041c0,3.59-0.556,7.065-1.486,9.296c-0.088,0.186-0.179,0.348-0.268,0.506       c-0.075,0.135-0.15,0.268-0.219,0.408L61.66,98.125z M60.395,97.875h1.11c0.061-0.119,0.125-0.234,0.19-0.351       c0.086-0.154,0.174-0.311,0.257-0.485c0.916-2.196,1.465-5.636,1.465-9.194c0-2.147-0.216-4.181-0.624-5.887h-0.988       c0.408,1.638,0.632,3.72,0.632,5.887c0,3.363-0.556,6.812-1.417,8.786C60.82,97.082,60.605,97.486,60.395,97.875z        M40.109,97.875h1.118c2.095-4.295,5.905-5.888,8.97-7.17c0.603-0.252,1.172-0.49,1.708-0.738l0.446-0.195       c3.245-1.413,6.598-2.874,9.09-7.813h-1.165c-2.292,4.197-5.149,5.476-8.173,6.829l-0.595,0.268       c-0.411,0.18-0.858,0.361-1.333,0.554C46.897,90.942,42.419,92.762,40.109,97.875z"/>
				</g>
			</g>
			<g>
				<g>
					<path fill="#000000" d="M41.2,98c0.053-0.05,0.114-0.09,0.158-0.152c2.479-5.002,7.277-6.276,10.6-7.758       c3.322-1.5,7.005-2.973,9.615-8.257h-1.389c-2.426,4.458-5.432,5.59-8.728,7.099c-2.944,1.333-7.813,2.621-10.679,7.38       c-0.123-0.197-0.22-0.413-0.299-0.619c-0.422-1.176-0.65-2.766-0.738-4.314c-0.018-0.543-0.035-1.063-0.035-1.544       c0.018-3.439,0.624-5.994,1.582-8.001h-1.371c-0.896,2.07-1.459,4.638-1.459,7.897v0.104c0,0.516,0.035,1.055,0.053,1.598       c0.07,1.647,0.316,3.318,0.809,4.71c0.299,0.683,0.615,1.248,0.967,1.769c0.035,0.04,0.07,0.062,0.105,0.09H41.2z"/>
				</g>
				<g>
					<path d="M41.25,98.125h-0.901l-0.034-0.026c-0.052-0.039-0.086-0.064-0.123-0.106c-0.388-0.571-0.698-1.14-0.988-1.801       c-0.459-1.298-0.741-2.938-0.819-4.755c-0.006-0.187-0.014-0.371-0.022-0.555c-0.015-0.347-0.031-0.706-0.031-1.048V89.73       c0-3.021,0.494-5.695,1.469-7.947l0.033-0.075h1.651l-0.085,0.179c-1.04,2.179-1.554,4.778-1.57,7.948       c0,0.457,0.016,0.948,0.033,1.47l0.002,0.069c0.069,1.212,0.251,2.94,0.731,4.276c0.06,0.154,0.121,0.293,0.185,0.416       c2.429-3.891,6.256-5.449,9.062-6.592c0.559-0.227,1.086-0.442,1.561-0.657l0.63-0.286c3.106-1.407,5.789-2.622,8.04-6.758       l0.035-0.065h1.664l-0.089,0.181c-2.521,5.102-6.098,6.708-9.254,8.125l-0.422,0.19c-0.494,0.22-1.014,0.433-1.563,0.658       c-3.068,1.257-6.885,2.821-8.977,7.041c-0.049,0.072-0.096,0.112-0.138,0.147c-0.016,0.013-0.032,0.026-0.046,0.04       L41.25,98.125z M40.434,97.875h0.719c0.006-0.005,0.012-0.011,0.019-0.016c0.034-0.029,0.064-0.054,0.085-0.084       c2.123-4.288,5.989-5.872,9.096-7.145c0.548-0.225,1.066-0.437,1.555-0.655l0.422-0.189c3.23-1.451,6.57-2.951,9.042-7.828       h-1.112c-2.284,4.157-5.12,5.441-8.12,6.802l-0.63,0.285c-0.479,0.218-1.009,0.434-1.57,0.662       c-2.973,1.21-6.673,2.717-9.053,6.669l-0.105,0.175l-0.108-0.173c-0.111-0.179-0.212-0.388-0.31-0.641       c-0.49-1.367-0.676-3.121-0.747-4.353l-0.002-0.072c-0.017-0.522-0.033-1.017-0.033-1.479c0.016-3.121,0.51-5.7,1.51-7.876H40       c-0.94,2.204-1.417,4.818-1.417,7.772v0.104c0,0.337,0.015,0.677,0.03,1.037c0.008,0.185,0.017,0.37,0.022,0.557       c0.076,1.79,0.354,3.405,0.801,4.672c0.28,0.639,0.583,1.194,0.953,1.74C40.397,97.848,40.414,97.86,40.434,97.875z"/>
				</g>
			</g>
		</g>
	</g>
</g>
</svg>