<?xml version="1.0" encoding="utf-8"?>
<!-- Generator: Adobe Illustrator 16.0.0, SVG Export Plug-In . SVG Version: 6.00 Build 0)  -->
<!DOCTYPE svg PUBLIC "-//W3C//DTD SVG 1.1//EN" "http://www.w3.org/Graphics/SVG/1.1/DTD/svg11.dtd">
<svg version="1.1" id="Layer_1" xmlns="http://www.w3.org/2000/svg" xmlns:xlink="http://www.w3.org/1999/xlink" x="0px" y="0px"
	 width="100px" height="61.865px" viewBox="0 0 100 61.865" enable-background="new 0 0 100 61.865" xml:space="preserve">
<path fill="#010101" d="M1.529,16.567l0.062,15.76H6.12c0-1.567-0.07-15.504,0.031-15.721h1.773v15.76h4.589
	c0.113-0.541-0.064-15.419,0.054-15.78l3.708-0.013c0.078,0.256,0.029,13.187,0.029,13.812c0,4.625,0,9.252,0,13.877h15.173
	c0.548,0,1.712,0.061,2.188-0.047c0.364,0.107,1.086-0.479,1.351-0.721c0.422-0.387,0.955-1.238,1.265-1.705
	c0.33-0.502,0.887-1.744,1.09-2.293c0.155-0.422,0.316-0.822,0.455-1.236c0.277-0.83,0.553-1.867,0.701-2.725
	c0.188-1.098,0.171-0.9-0.614-0.9h-11.88V16.604h47.932v18.032H62.044c0,1.158,0.331,2.143,0.597,3.076
	c0.066,0.232,0.148,0.475,0.229,0.676l0.233,0.676c0.25,0.705,0.789,1.924,1.15,2.521c0.414,0.686,1.025,1.59,1.643,2.068
	c0.205,0.16,0.951,0.67,1.265,0.555c0.555,0.125,7.501,0.055,8.25,0.055c2.763,0,5.522,0,8.284,0V20.031
	c0-0.503-0.055-3.187,0.029-3.444l3.709-0.014c0.117,0.377-0.06,15.25,0.053,15.793h4.591v-15.76h1.772
	c0.102,0.218,0.029,14.154,0.027,15.723h4.539c0-5.076,0.029-10.237,0-15.311c-0.002-0.471,0.02-0.28,0.034-0.412
	c0.002-0.022,0.013-0.026,0.021-0.039c0.191,0.004,1.188-0.645,1.33-0.775c0.27-0.244,0.254-0.843,0.022-1.076
	c-0.067-0.068-0.329-0.258-0.423-0.32l-0.932-0.512V0.02H93.85v11.718c0,0.625,0.032,1.331,0.006,1.942
	c-0.014,0.291-0.074,0.203-0.789,0.203c-0.33,0-0.658,0-0.988,0V0.97c0-0.2,0.081-0.843-0.061-0.93
	c-0.049-0.03-4.441-0.027-4.479-0.02c-0.179,0.037-0.129,0.144-0.124,0.371c0.025,1.602,0.001,3.376,0.001,4.994
	c0,2.654,0,5.309,0,7.963c-1.071,0-1.368,0.01-2.438-0.08c-1.937-0.162-2.449-0.588-4.013-1.103
	c-0.481-0.16-1.957-0.287-2.327-0.212c-0.152,0.03-1.453,0.732-1.701,0.857c-0.139,0.067-0.273,0.138-0.412,0.205l-1.271,0.67
	c-0.397,0.244-0.483,0.197-1.08,0.197H26.899c-0.265,0-1.667,0.07-1.829-0.068c-0.072-0.062-0.091-0.117-0.146-0.186
	c-0.155-0.195-0.61-0.682-0.79-0.818c-0.133-0.104-0.187-0.182-0.337-0.282c-0.476-0.32-0.744-0.467-1.364-0.573
	c-0.384-0.067-0.789-0.074-1.155-0.124c-0.565-0.078-1.767,0.081-2.365,0.171c-0.704,0.106-1.388,0.349-1.974,0.584
	c-1.529,0.611-2.645,0.762-4.355,0.762V1.423c0-1.7,0.122-1.404-0.577-1.403L8.012,0.027c-0.154,0.057-0.09,0.566-0.09,0.901v12.956
	l-1.446,0.002c-0.245,0.002-0.309,0.049-0.332-0.164c-0.029-0.289,0.005-5.296,0.005-5.863c0-2.613,0-5.226,0-7.839h-4.62v13.864
	c-0.374,0.197-1.016,0.526-1.331,0.812c-0.269,0.244-0.252,0.843-0.022,1.076c0.159,0.162,0.655,0.465,0.873,0.572
	C1.293,16.464,1.374,16.572,1.529,16.567L1.529,16.567z"/>
<path fill="#010101" d="M40.76,35.05h-0.908c0,0.934-0.672,3-0.963,3.861c-0.103,0.305-0.22,0.561-0.34,0.857
	c-0.552,1.385-1.086,2.283-2.016,3.389c-0.11,0.131-0.182,0.199-0.301,0.318c-1.245,1.25-0.994-0.109-0.999,3.248
	c-0.001,0.256-0.044,0.32-0.044,0.576c-0.001,0.803-0.081,1.518-0.081,2.354v3.754c0,0.822,0.072,1.521,0.081,2.312
	c0.002,0.232,0.044,0.285,0.044,0.533c0.001,1.512-0.079,2.393,0.263,3.943c0.075,0.34,0.154,0.623,0.247,0.949
	c0.083,0.291,0.184,0.719,0.478,0.719h28.544c0-0.193,0.023-0.268,0.047-0.451c0.088-0.758,0.111-1.537,0.196-2.277l0.173-3.334
	c0-0.174-0.012-0.312,0.014-0.479l0.229-3.775c0.015-0.156-0.009-0.332,0.005-0.49l0.078-1.447c0.006-0.207,0.043-0.229,0.045-0.451
	c0.002-0.16-0.012-0.338-0.002-0.496c0.01-0.188,0.043-0.227,0.043-0.451c0-0.156-0.013-0.342,0.006-0.492
	c0.058-0.512,0.032-1.9,0.032-2.48c0-0.543-0.138-1.072-0.299-1.475c-0.097-0.238-0.179-0.395-0.291-0.617
	c-0.108-0.223-0.222-0.357-0.351-0.557c-0.551-0.861-0.92-1.332-1.486-2.105c-0.53-0.721-0.985-1.373-1.395-2.193
	c-0.1-0.195-0.205-0.377-0.287-0.578c-0.088-0.219-0.16-0.467-0.222-0.686c-0.224-0.801-0.247-1.139-0.247-1.979
	c-0.58,0-1.363-0.281-2.242-0.018c-1.444,0.436-0.812,1.252-3.342,2.52c-0.969,0.484-1.527,0.568-2.535,0.805l-2.729,0.65
	c-0.155-0.002-0.523-0.074-0.72-0.105c-0.272-0.039-0.452-0.068-0.712-0.111c-0.469-0.078-0.978-0.143-1.453-0.238
	c-0.652-0.133-2.093-0.385-2.609-0.732c-0.164-0.109-0.307-0.236-0.459-0.365c-0.077-0.064-0.161-0.121-0.235-0.178
	c-0.6-0.457-0.984-0.854-1.667-1.262l-1.047-0.645C41.216,35.314,40.84,35.05,40.76,35.05L40.76,35.05z"/>
<path fill="#010101" d="M39.728,27.375c0,0.453,0,0.853,0.064,1.298c0.052,0.358,0.08,0.668,0.152,1.004
	c0.279,1.292,1.042,2.862,1.959,3.774c0.582,0.58,0.883,0.809,1.542,1.303c0.879,0.662,2.334,1.342,3.349,1.811
	c0.541,0.248,2.139,0.26,2.875,0.26c1.333,0,3.183-0.27,4.386-0.852c0.153-0.074,0.232-0.121,0.394-0.186
	c0.389-0.158,1.069-0.639,1.413-0.896c0.734-0.547,1.18-1.002,1.779-1.73c0.281-0.344,0.719-1.016,0.926-1.424
	c0.138-0.279,0.205-0.533,0.318-0.836c0.098-0.26,0.201-0.604,0.254-0.901c0.271-1.544,0.35-3.437-0.031-4.967
	c-0.596-2.394-1.916-4.31-3.953-5.661c-0.504-0.335-0.979-0.553-1.584-0.809c-0.547-0.229-1.225-0.397-1.87-0.522
	c-0.317-0.062-0.716-0.097-1.052-0.144l-1.188-0.053l-1.116,0.08c-0.652,0.075-1.339,0.25-1.941,0.451
	c-1.345,0.449-2.757,1.348-3.717,2.307c-0.413,0.414-0.504,0.549-0.845,0.928c-0.475,0.529-1.301,1.972-1.543,2.709
	c-0.099,0.3-0.203,0.56-0.292,0.904C39.857,25.806,39.728,26.628,39.728,27.375L39.728,27.375z"/>
<path fill="#010101" d="M1.529,16.567l0.062,15.76H6.12c0-1.567-0.07-15.504,0.031-15.721h1.773v15.76h4.589
	c0.113-0.541-0.064-15.419,0.054-15.78l3.708-0.013c0.078,0.256,0.029,13.187,0.029,13.812c0,4.625,0,9.252,0,13.877h15.173
	c0.548,0,1.712,0.061,2.188-0.047c0.364,0.107,1.086-0.479,1.351-0.721c0.422-0.387,0.955-1.238,1.265-1.705
	c0.33-0.502,0.887-1.744,1.09-2.293c0.155-0.422,0.316-0.822,0.455-1.236c0.277-0.83,0.553-1.867,0.701-2.725
	c0.188-1.098,0.171-0.9-0.614-0.9h-11.88V16.604h47.932v18.032H62.044c0,1.158,0.331,2.143,0.597,3.076
	c0.066,0.232,0.148,0.475,0.229,0.676l0.233,0.676c0.25,0.705,0.789,1.924,1.15,2.521c0.414,0.686,1.025,1.59,1.643,2.068
	c0.205,0.16,0.951,0.67,1.265,0.555c0.555,0.125,7.501,0.055,8.25,0.055c2.763,0,5.522,0,8.284,0V20.031
	c0-0.503-0.055-3.187,0.029-3.444l3.709-0.014c0.117,0.377-0.06,15.25,0.053,15.793h4.591v-15.76h1.772
	c0.102,0.218,0.029,14.154,0.027,15.723h4.539c0-5.076,0.029-10.237,0-15.311c-0.002-0.471,0.02-0.28,0.034-0.412
	c0.002-0.022,0.013-0.026,0.021-0.039c0.191,0.004,1.188-0.645,1.33-0.775c0.27-0.244,0.254-0.843,0.022-1.076
	c-0.067-0.068-0.329-0.258-0.423-0.32l-0.932-0.512V0.02H93.85v11.718c0,0.625,0.032,1.331,0.006,1.942
	c-0.014,0.291-0.074,0.203-0.789,0.203c-0.33,0-0.658,0-0.988,0V0.97c0-0.2,0.081-0.843-0.061-0.93
	c-0.049-0.03-4.441-0.027-4.479-0.02c-0.179,0.037-0.129,0.144-0.124,0.371c0.025,1.602,0.001,3.376,0.001,4.994
	c0,2.654,0,5.309,0,7.963c-1.071,0-1.368,0.01-2.438-0.08c-1.937-0.162-2.449-0.588-4.013-1.103
	c-0.481-0.16-1.957-0.287-2.327-0.212c-0.152,0.03-1.453,0.732-1.701,0.857c-0.139,0.067-0.273,0.138-0.412,0.205l-1.271,0.67
	c-0.397,0.244-0.483,0.197-1.08,0.197H26.899c-0.265,0-1.667,0.07-1.829-0.068c-0.072-0.062-0.091-0.117-0.146-0.186
	c-0.155-0.195-0.61-0.682-0.79-0.818c-0.133-0.104-0.187-0.182-0.337-0.282c-0.476-0.32-0.744-0.467-1.364-0.573
	c-0.384-0.067-0.789-0.074-1.155-0.124c-0.565-0.078-1.767,0.081-2.365,0.171c-0.704,0.106-1.388,0.349-1.974,0.584
	c-1.529,0.611-2.645,0.762-4.355,0.762V1.423c0-1.7,0.122-1.404-0.577-1.403L8.012,0.027c-0.154,0.057-0.09,0.566-0.09,0.901v12.956
	l-1.446,0.002c-0.245,0.002-0.309,0.049-0.332-0.164c-0.029-0.289,0.005-5.296,0.005-5.863c0-2.613,0-5.226,0-7.839h-4.62v13.864
	c-0.374,0.197-1.016,0.526-1.331,0.812c-0.269,0.244-0.252,0.843-0.022,1.076c0.159,0.162,0.655,0.465,0.873,0.572
	C1.293,16.464,1.374,16.572,1.529,16.567L1.529,16.567z"/>
<path fill="#010101" d="M40.76,35.05h-0.908c0,0.934-0.672,3-0.963,3.861c-0.103,0.305-0.22,0.561-0.34,0.857
	c-0.552,1.385-1.086,2.283-2.016,3.389c-0.11,0.131-0.182,0.199-0.301,0.318c-1.245,1.25-0.994-0.109-0.999,3.248
	c-0.001,0.256-0.044,0.32-0.044,0.576c-0.001,0.803-0.081,1.518-0.081,2.354v3.754c0,0.822,0.072,1.521,0.081,2.312
	c0.002,0.232,0.044,0.285,0.044,0.533c0.001,1.512-0.079,2.393,0.263,3.943c0.075,0.34,0.154,0.623,0.247,0.949
	c0.083,0.291,0.184,0.719,0.478,0.719h28.544c0-0.193,0.023-0.268,0.047-0.451c0.088-0.758,0.111-1.537,0.196-2.277l0.173-3.334
	c0-0.174-0.012-0.312,0.014-0.479l0.229-3.775c0.015-0.156-0.009-0.332,0.005-0.49l0.078-1.447c0.006-0.207,0.043-0.229,0.045-0.451
	c0.002-0.16-0.012-0.338-0.002-0.496c0.01-0.188,0.043-0.227,0.043-0.451c0-0.156-0.013-0.342,0.006-0.492
	c0.058-0.512,0.032-1.9,0.032-2.48c0-0.543-0.138-1.072-0.299-1.475c-0.097-0.238-0.179-0.395-0.291-0.617
	c-0.108-0.223-0.222-0.357-0.351-0.557c-0.551-0.861-0.92-1.332-1.486-2.105c-0.53-0.721-0.985-1.373-1.395-2.193
	c-0.1-0.195-0.205-0.377-0.287-0.578c-0.088-0.219-0.16-0.467-0.222-0.686c-0.224-0.801-0.247-1.139-0.247-1.979
	c-0.58,0-1.363-0.281-2.242-0.018c-1.444,0.436-0.812,1.252-3.342,2.52c-0.969,0.484-1.527,0.568-2.535,0.805l-2.729,0.65
	c-0.155-0.002-0.523-0.074-0.72-0.105c-0.272-0.039-0.452-0.068-0.712-0.111c-0.469-0.078-0.978-0.143-1.453-0.238
	c-0.652-0.133-2.093-0.385-2.609-0.732c-0.164-0.109-0.307-0.236-0.459-0.365c-0.077-0.064-0.161-0.121-0.235-0.178
	c-0.6-0.457-0.984-0.854-1.667-1.262l-1.047-0.645C41.216,35.314,40.84,35.05,40.76,35.05L40.76,35.05z"/>
<path fill="#010101" d="M39.728,27.375c0,0.453,0,0.853,0.064,1.298c0.052,0.358,0.08,0.668,0.152,1.004
	c0.279,1.292,1.042,2.862,1.959,3.774c0.582,0.58,0.883,0.809,1.542,1.303c0.879,0.662,2.334,1.342,3.349,1.811
	c0.541,0.248,2.139,0.26,2.875,0.26c1.333,0,3.183-0.27,4.386-0.852c0.153-0.074,0.232-0.121,0.394-0.186
	c0.389-0.158,1.069-0.639,1.413-0.896c0.734-0.547,1.18-1.002,1.779-1.73c0.281-0.344,0.719-1.016,0.926-1.424
	c0.138-0.279,0.205-0.533,0.318-0.836c0.098-0.26,0.201-0.604,0.254-0.901c0.271-1.544,0.35-3.437-0.031-4.967
	c-0.596-2.394-1.916-4.31-3.953-5.661c-0.504-0.335-0.979-0.553-1.584-0.809c-0.547-0.229-1.225-0.397-1.87-0.522
	c-0.317-0.062-0.716-0.097-1.052-0.144l-1.188-0.053l-1.116,0.08c-0.652,0.075-1.339,0.25-1.941,0.451
	c-1.345,0.449-2.757,1.348-3.717,2.307c-0.413,0.414-0.504,0.549-0.845,0.928c-0.475,0.529-1.301,1.972-1.543,2.709
	c-0.099,0.3-0.203,0.56-0.292,0.904C39.857,25.806,39.728,26.628,39.728,27.375L39.728,27.375z"/>
</svg>
